<svg id="Hexels SVG Export" xmlns="http://www.w3.org/2000/svg" version="1.1" xmlns:xlink="http://www.w3.org/1999/xlink" viewBox="0 -0 2972 3432" xml:space="preserve">
<g id="Root" transform="matrix(1.000, 0.000, 0.000, 1.000, 0.000, 0.000)">
<g id="Layer 1" transform="matrix(1.000, 0.000, 0.000, 1.000, 0.000, 0.000)">
<g id="Hexels">
<path d="M 1486.09,568.42 L 492.27,1142.22 L 492.27,2289.79 L 1486.10,2863.57 L 2479.92,2289.78 L 2479.92,1142.21 L 1486.09,568.42  z
M 746.14,1288.79 L 1487.09,861.43 L 1730.40,1002.17 L 1730.69,1574.81 L 1981.47,1433.57 L 2225.76,1574.18 L 2226.26,2142.87 L 1486.09,2570.43 L 746.14,2143.21 L 746.14,1288.79  z
" style="fill:#ffffff;fill-opacity:1.00"/>
<path d="M 1485.10,854.57 L 740.17,1284.88 L 739.67,1860.18 L 991.72,2005.43 L 1736.65,1575.12 L 1737.15,999.82 L 1485.10,854.57  z
" style="fill:#8a5d10;fill-opacity:1.00"/>
<path d="M 1981.46,1426.43 L 1730.67,1571.22 L 1730.68,1860.80 L 1981.47,2005.57 L 2232.24,1860.78 L 2232.23,1571.21 L 1981.46,1426.43  z
" style="fill:#8a5d10;fill-opacity:1.00"/>
<path d="M 1733.10,1569.49 L 989.72,1998.57 L 741.22,1855.93 L 740.56,2147.57 L 1486.10,2577.57 L 2231.62,2147.57 L 2230.94,1855.91 L 1981.43,1998.43 L 1736.87,1857.21 L 1733.10,1569.49  z
" style="fill:#11a6c1;fill-opacity:1.00"/>
</g>
<g id="Outlines">
<polygon points="1362.25, 929.50  1368.98, 941.16, 1245.14, 1012.66,  1238.41, 1001.00" style="fill:#623e0a;fill-opacity:1.00"/>
<polygon points="1486.09, 858.00  1492.82, 869.66, 1368.98, 941.16,  1362.25, 929.50" style="fill:#623e0a;fill-opacity:1.00"/>
<polygon points="1609.93, 929.50  1603.20, 941.16, 1479.36, 869.66,  1486.09, 858.00" style="fill:#623e0a;fill-opacity:1.00"/>
<polygon points="1733.77, 1001.00  1720.32, 1008.77, 1603.20, 941.16,  1609.93, 929.50" style="fill:#623e0a;fill-opacity:1.00"/>
<polygon points="1114.57, 1072.50  1121.30, 1084.16, 997.46, 1155.66,  990.73, 1144.00" style="fill:#623e0a;fill-opacity:1.00"/>
<polygon points="1238.41, 1001.00  1245.14, 1012.66, 1121.30, 1084.16,  1114.57, 1072.50" style="fill:#623e0a;fill-opacity:1.00"/>
<polygon points="1362.25, 1072.50  1355.52, 1084.16, 1231.68, 1012.66,  1238.41, 1001.00" style="fill:#623e0a;fill-opacity:1.00"/>
<polygon points="1486.09, 1144.00  1486.09, 1159.54, 1355.52, 1084.16,  1362.25, 1072.50" style="fill:#623e0a;fill-opacity:1.00"/>
<polygon points="1609.93, 1072.50  1616.66, 1084.16, 1492.82, 1155.66,  1486.09, 1144.00" style="fill:#623e0a;fill-opacity:1.00"/>
<polygon points="1733.77, 1001.00  1740.50, 1012.66, 1616.66, 1084.16,  1609.93, 1072.50" style="fill:#623e0a;fill-opacity:1.00"/>
<polygon points="1733.77, 1144.00  1720.32, 1144.00, 1720.32, 1008.77,  1733.77, 1001.00" style="fill:#623e0a;fill-opacity:1.00"/>
<polygon points="1733.77, 1287.00  1720.32, 1287.00, 1720.32, 1144.00,  1733.77, 1144.00" style="fill:#623e0a;fill-opacity:1.00"/>
<polygon points="866.89, 1215.50  873.62, 1227.16, 749.78, 1298.66,  743.05, 1287.00" style="fill:#623e0a;fill-opacity:1.00"/>
<polygon points="990.73, 1144.00  997.46, 1155.66, 873.62, 1227.16,  866.89, 1215.50" style="fill:#623e0a;fill-opacity:1.00"/>
<polygon points="1114.57, 1215.50  1107.84, 1227.16, 984.00, 1155.66,  990.73, 1144.00" style="fill:#623e0a;fill-opacity:1.00"/>
<polygon points="1238.41, 1287.00  1238.41, 1302.54, 1107.84, 1227.16,  1114.57, 1215.50" style="fill:#623e0a;fill-opacity:1.00"/>
<polygon points="1362.25, 1215.50  1368.98, 1227.16, 1245.14, 1298.66,  1238.41, 1287.00" style="fill:#623e0a;fill-opacity:1.00"/>
<polygon points="1486.09, 1144.00  1492.82, 1155.66, 1368.98, 1227.16,  1362.25, 1215.50" style="fill:#623e0a;fill-opacity:1.00"/>
<polygon points="1486.09, 1144.00  1499.55, 1151.77, 1499.55, 1287.00,  1486.09, 1287.00" style="fill:#623e0a;fill-opacity:1.00"/>
<polygon points="1486.09, 1287.00  1499.55, 1287.00, 1499.55, 1430.00,  1486.09, 1430.00" style="fill:#623e0a;fill-opacity:1.00"/>
<polygon points="743.05, 1287.00  756.50, 1287.00, 756.50, 1430.00,  743.05, 1430.00" style="fill:#623e0a;fill-opacity:1.00"/>
<polygon points="866.89, 1358.50  860.16, 1370.16, 736.32, 1298.66,  743.05, 1287.00" style="fill:#623e0a;fill-opacity:1.00"/>
<polygon points="990.73, 1430.00  990.73, 1445.54, 860.16, 1370.16,  866.89, 1358.50" style="fill:#623e0a;fill-opacity:1.00"/>
<polygon points="1114.57, 1358.50  1121.30, 1370.16, 990.73, 1445.54,  990.73, 1430.00" style="fill:#623e0a;fill-opacity:1.00"/>
<polygon points="1238.41, 1287.00  1245.14, 1298.66, 1121.30, 1370.16,  1114.57, 1358.50" style="fill:#623e0a;fill-opacity:1.00"/>
<polygon points="1238.41, 1287.00  1251.87, 1294.77, 1251.87, 1430.00,  1238.41, 1430.00" style="fill:#623e0a;fill-opacity:1.00"/>
<polygon points="1609.93, 1358.50  1616.66, 1370.16, 1492.82, 1441.66,  1486.09, 1430.00" style="fill:#623e0a;fill-opacity:1.00"/>
<polygon points="1733.77, 1287.00  1740.50, 1298.66, 1616.66, 1370.16,  1609.93, 1358.50" style="fill:#623e0a;fill-opacity:1.00"/>
<polygon points="1733.77, 1430.00  1720.32, 1430.00, 1720.32, 1287.00,  1733.77, 1287.00" style="fill:#623e0a;fill-opacity:1.00"/>
<polygon points="743.05, 1430.00  756.50, 1430.00, 756.50, 1573.00,  743.05, 1573.00" style="fill:#623e0a;fill-opacity:1.00"/>
<polygon points="1238.41, 1430.00  1251.87, 1430.00, 1251.87, 1573.00,  1238.41, 1573.00" style="fill:#623e0a;fill-opacity:1.00"/>
<polygon points="1733.77, 1573.00  1720.32, 1573.00, 1720.32, 1430.00,  1733.77, 1430.00" style="fill:#623e0a;fill-opacity:1.00"/>
<polygon points="990.73, 1573.00  977.27, 1573.00, 977.27, 1430.00,  990.73, 1430.00" style="fill:#623e0a;fill-opacity:1.00"/>
<polygon points="1362.25, 1501.50  1368.98, 1513.16, 1245.14, 1584.66,  1238.41, 1573.00" style="fill:#623e0a;fill-opacity:1.00"/>
<polygon points="1486.09, 1430.00  1492.82, 1441.66, 1368.98, 1513.16,  1362.25, 1501.50" style="fill:#623e0a;fill-opacity:1.00"/>
<polygon points="1486.09, 1430.00  1499.55, 1430.00, 1499.55, 1573.00,  1486.09, 1573.00" style="fill:#623e0a;fill-opacity:1.00"/>
<polygon points="1857.62, 1501.50  1864.34, 1513.16, 1747.23, 1580.77,  1733.77, 1573.00" style="fill:#623e0a;fill-opacity:1.00"/>
<polygon points="1981.46, 1430.00  1988.19, 1441.66, 1864.34, 1513.16,  1857.62, 1501.50" style="fill:#623e0a;fill-opacity:1.00"/>
<polygon points="2105.30, 1501.50  2098.57, 1513.16, 1974.73, 1441.66,  1981.46, 1430.00" style="fill:#623e0a;fill-opacity:1.00"/>
<polygon points="2229.14, 1573.00  2215.68, 1580.77, 2098.57, 1513.16,  2105.30, 1501.50" style="fill:#623e0a;fill-opacity:1.00"/>
<polygon points="990.73, 1716.00  977.27, 1716.00, 977.27, 1573.00,  990.73, 1573.00" style="fill:#623e0a;fill-opacity:1.00"/>
<polygon points="1486.09, 1573.00  1499.55, 1573.00, 1499.55, 1716.00,  1486.09, 1716.00" style="fill:#623e0a;fill-opacity:1.00"/>
<polygon points="743.05, 1573.00  756.50, 1573.00, 756.50, 1716.00,  743.05, 1716.00" style="fill:#623e0a;fill-opacity:1.00"/>
<polygon points="866.89, 1644.50  860.16, 1656.16, 736.32, 1584.66,  743.05, 1573.00" style="fill:#623e0a;fill-opacity:1.00"/>
<polygon points="990.73, 1716.00  990.73, 1731.54, 860.16, 1656.16,  866.89, 1644.50" style="fill:#623e0a;fill-opacity:1.00"/>
<polygon points="1114.57, 1644.50  1121.30, 1656.16, 990.73, 1731.54,  990.73, 1716.00" style="fill:#623e0a;fill-opacity:1.00"/>
<polygon points="1238.41, 1573.00  1245.14, 1584.66, 1121.30, 1656.16,  1114.57, 1644.50" style="fill:#623e0a;fill-opacity:1.00"/>
<polygon points="1238.41, 1573.00  1251.87, 1573.00, 1251.87, 1716.00,  1238.41, 1716.00" style="fill:#623e0a;fill-opacity:1.00"/>
<polygon points="1609.93, 1644.50  1616.66, 1656.16, 1492.82, 1727.66,  1486.09, 1716.00" style="fill:#623e0a;fill-opacity:1.00"/>
<polygon points="1733.77, 1573.00  1740.50, 1584.66, 1616.66, 1656.16,  1609.93, 1644.50" style="fill:#623e0a;fill-opacity:1.00"/>
<polygon points="1733.77, 1573.00  1747.23, 1580.77, 1747.23, 1716.00,  1733.77, 1716.00" style="fill:#623e0a;fill-opacity:1.00"/>
<polygon points="1857.62, 1644.50  1850.89, 1656.16, 1727.04, 1584.66,  1733.77, 1573.00" style="fill:#623e0a;fill-opacity:1.00"/>
<polygon points="1981.46, 1716.00  1981.46, 1731.54, 1850.89, 1656.16,  1857.62, 1644.50" style="fill:#623e0a;fill-opacity:1.00"/>
<polygon points="2105.30, 1644.50  2112.03, 1656.16, 1981.46, 1731.54,  1981.46, 1716.00" style="fill:#623e0a;fill-opacity:1.00"/>
<polygon points="2229.14, 1573.00  2235.87, 1584.66, 2112.03, 1656.16,  2105.30, 1644.50" style="fill:#623e0a;fill-opacity:1.00"/>
<polygon points="2229.14, 1716.00  2215.68, 1716.00, 2215.68, 1580.77,  2229.14, 1573.00" style="fill:#623e0a;fill-opacity:1.00"/>
<polygon points="743.05, 1716.00  756.50, 1716.00, 756.50, 1859.00,  743.05, 1859.00" style="fill:#623e0a;fill-opacity:1.00"/>
<polygon points="1238.41, 1716.00  1251.87, 1716.00, 1251.87, 1859.00,  1238.41, 1859.00" style="fill:#623e0a;fill-opacity:1.00"/>
<polygon points="1733.77, 1716.00  1747.23, 1716.00, 1747.23, 1851.23,  1733.77, 1859.00" style="fill:#623e0a;fill-opacity:1.00"/>
<polygon points="2229.14, 1859.00  2215.68, 1851.23, 2215.68, 1716.00,  2229.14, 1716.00" style="fill:#623e0a;fill-opacity:1.00"/>
<polygon points="990.73, 1859.00  977.27, 1859.00, 977.27, 1716.00,  990.73, 1716.00" style="fill:#623e0a;fill-opacity:1.00"/>
<polygon points="1362.25, 1787.50  1368.98, 1799.16, 1245.14, 1870.66,  1238.41, 1859.00" style="fill:#623e0a;fill-opacity:1.00"/>
<polygon points="1486.09, 1716.00  1492.82, 1727.66, 1368.98, 1799.16,  1362.25, 1787.50" style="fill:#623e0a;fill-opacity:1.00"/>
<polygon points="1981.46, 1716.00  1994.92, 1716.00, 1994.92, 1859.00,  1981.46, 1859.00" style="fill:#623e0a;fill-opacity:1.00"/>
<polygon points="990.73, 2002.00  977.27, 2002.00, 977.27, 1859.00,  990.73, 1859.00" style="fill:#623e0a;fill-opacity:1.00"/>
<polygon points="1733.77, 1859.00  1747.23, 1851.23, 1864.34, 1918.84,  1857.62, 1930.50" style="fill:#623e0a;fill-opacity:1.00"/>
<polygon points="1857.62, 1930.50  1864.34, 1918.84, 1988.19, 1990.34,  1981.46, 2002.00" style="fill:#623e0a;fill-opacity:1.00"/>
<polygon points="1981.46, 1859.00  1994.92, 1859.00, 1994.92, 2002.00,  1981.46, 2002.00" style="fill:#623e0a;fill-opacity:1.00"/>
<polygon points="1981.46, 2002.00  1974.73, 1990.34, 2098.57, 1918.84,  2105.30, 1930.50" style="fill:#623e0a;fill-opacity:1.00"/>
<polygon points="2105.30, 1930.50  2098.57, 1918.84, 2215.68, 1851.23,  2229.14, 1859.00" style="fill:#623e0a;fill-opacity:1.00"/>
<polygon points="743.05, 1859.00  756.50, 1859.00, 756.50, 2002.00,  743.05, 2002.00" style="fill:#095462;fill-opacity:1.00"/>
<polygon points="866.89, 1930.50  860.16, 1942.16, 736.32, 1870.66,  743.05, 1859.00" style="fill:#623e0a;fill-opacity:1.00"/>
<polygon points="990.73, 2002.00  990.73, 2017.54, 860.16, 1942.16,  866.89, 1930.50" style="fill:#623e0a;fill-opacity:1.00"/>
<polygon points="1114.57, 1930.50  1121.30, 1942.16, 990.73, 2017.54,  990.73, 2002.00" style="fill:#623e0a;fill-opacity:1.00"/>
<polygon points="1238.41, 1859.00  1245.14, 1870.66, 1121.30, 1942.16,  1114.57, 1930.50" style="fill:#623e0a;fill-opacity:1.00"/>
<polygon points="2105.30, 1930.50  2112.03, 1942.16, 1988.19, 2013.66,  1981.46, 2002.00" style="fill:#095462;fill-opacity:1.00"/>
<polygon points="2229.14, 1859.00  2235.87, 1870.66, 2112.03, 1942.16,  2105.30, 1930.50" style="fill:#095462;fill-opacity:1.00"/>
<polygon points="2229.14, 2002.00  2215.68, 2002.00, 2215.68, 1866.77,  2229.14, 1859.00" style="fill:#095462;fill-opacity:1.00"/>
<polygon points="743.05, 2002.00  756.50, 2002.00, 756.50, 2137.23,  743.05, 2145.00" style="fill:#095462;fill-opacity:1.00"/>
<polygon points="2229.14, 2145.00  2215.68, 2145.00, 2215.68, 2002.00,  2229.14, 2002.00" style="fill:#095462;fill-opacity:1.00"/>
<polygon points="1114.57, 2073.50  1107.84, 2085.16, 984.00, 2013.66,  990.73, 2002.00" style="fill:#095462;fill-opacity:1.00"/>
<polygon points="1238.41, 2145.00  1231.68, 2156.66, 1107.84, 2085.16,  1114.57, 2073.50" style="fill:#095462;fill-opacity:1.00"/>
<polygon points="1857.62, 2073.50  1864.34, 2085.16, 1740.50, 2156.66,  1733.77, 2145.00" style="fill:#095462;fill-opacity:1.00"/>
<polygon points="1981.46, 2002.00  1988.19, 2013.66, 1864.34, 2085.16,  1857.62, 2073.50" style="fill:#095462;fill-opacity:1.00"/>
<polygon points="743.05, 2145.00  756.50, 2137.23, 873.62, 2204.84,  866.89, 2216.50" style="fill:#095462;fill-opacity:1.00"/>
<polygon points="866.89, 2216.50  873.62, 2204.84, 997.46, 2276.34,  990.73, 2288.00" style="fill:#095462;fill-opacity:1.00"/>
<polygon points="1981.46, 2288.00  1974.73, 2276.34, 2098.57, 2204.84,  2105.30, 2216.50" style="fill:#095462;fill-opacity:1.00"/>
<polygon points="2105.30, 2216.50  2098.57, 2204.84, 2222.41, 2133.34,  2229.14, 2145.00" style="fill:#095462;fill-opacity:1.00"/>
<polygon points="1362.25, 2216.50  1355.52, 2228.16, 1231.68, 2156.66,  1238.41, 2145.00" style="fill:#095462;fill-opacity:1.00"/>
<polygon points="1486.09, 2288.00  1479.36, 2299.66, 1355.52, 2228.16,  1362.25, 2216.50" style="fill:#095462;fill-opacity:1.00"/>
<polygon points="1609.93, 2216.50  1616.66, 2228.16, 1492.82, 2299.66,  1486.09, 2288.00" style="fill:#095462;fill-opacity:1.00"/>
<polygon points="1733.77, 2145.00  1740.50, 2156.66, 1616.66, 2228.16,  1609.93, 2216.50" style="fill:#095462;fill-opacity:1.00"/>
<polygon points="990.73, 2288.00  997.46, 2276.34, 1121.30, 2347.84,  1114.57, 2359.50" style="fill:#095462;fill-opacity:1.00"/>
<polygon points="1114.57, 2359.50  1121.30, 2347.84, 1245.14, 2419.34,  1238.41, 2431.00" style="fill:#095462;fill-opacity:1.00"/>
<polygon points="1733.77, 2431.00  1727.04, 2419.34, 1850.89, 2347.84,  1857.62, 2359.50" style="fill:#095462;fill-opacity:1.00"/>
<polygon points="1857.62, 2359.50  1850.89, 2347.84, 1974.73, 2276.34,  1981.46, 2288.00" style="fill:#095462;fill-opacity:1.00"/>
<polygon points="1486.09, 2288.00  1499.55, 2288.00, 1499.55, 2431.00,  1486.09, 2431.00" style="fill:#095462;fill-opacity:1.00"/>
<polygon points="1238.41, 2431.00  1245.14, 2419.34, 1368.98, 2490.84,  1362.25, 2502.50" style="fill:#095462;fill-opacity:1.00"/>
<polygon points="1362.25, 2502.50  1368.98, 2490.84, 1492.82, 2562.34,  1486.09, 2574.00" style="fill:#095462;fill-opacity:1.00"/>
<polygon points="1486.09, 2431.00  1499.55, 2431.00, 1499.55, 2574.00,  1486.09, 2574.00" style="fill:#095462;fill-opacity:1.00"/>
<polygon points="1486.09, 2574.00  1479.36, 2562.34, 1603.20, 2490.84,  1609.93, 2502.50" style="fill:#095462;fill-opacity:1.00"/>
<polygon points="1609.93, 2502.50  1603.20, 2490.84, 1727.04, 2419.34,  1733.77, 2431.00" style="fill:#095462;fill-opacity:1.00"/>
</g>
</g>
</g></svg>
