<svg id="Hexels SVG Export" xmlns="http://www.w3.org/2000/svg" version="1.1" xmlns:xlink="http://www.w3.org/1999/xlink" viewBox="0 -0 11889 13728" xml:space="preserve">
<g id="Root" transform="matrix(1.000, 0.000, 0.000, 1.000, 0.000, 0.000)">
<g id="Layer 1" transform="matrix(1.000, 0.000, 0.000, 1.000, 0.000, 0.000)">
<g id="Hexels">
<path d="M 5944.37,2284.43 L 1978.36,4574.21 L 1978.36,9153.79 L 5944.37,11443.58 L 9910.38,9153.79 L 9910.38,4574.21 L 5944.37,2284.43  z
M 2974.66,7438.58 L 5944.37,5723.58 L 8914.08,7438.58 L 8914.07,8577.42 L 5944.37,10292.42 L 2974.66,8577.42 L 2974.66,7438.58  z
" style="fill:#ffffff;fill-opacity:1.00"/>
<path d="M 5944.37,5716.42 L 2969.70,7433.43 L 2969.71,8582.58 L 5944.37,10299.58 L 8919.03,8582.58 L 8919.03,7433.43 L 5944.37,5716.42  z
M 5699.78,6436.79 L 5944.38,6295.58 L 6188.96,6436.80 L 6190.30,6724.12 L 6439.76,6581.57 L 6684.32,6722.80 L 6685.66,7010.12 L 6935.12,6867.57 L 7179.69,7008.80 L 7181.03,7296.12 L 7430.48,7153.57 L 7675.05,7294.80 L 7675.04,7577.22 L 7430.45,7718.42 L 7180.96,7575.92 L 7179.67,7863.23 L 6935.08,8004.42 L 6685.59,7861.92 L 6684.31,8149.23 L 6439.72,8290.42 L 6190.23,8147.92 L 6188.94,8435.23 L 5944.36,8576.42 L 5699.78,8435.20 L 5698.44,8147.88 L 5448.98,8290.43 L 5204.41,8149.20 L 5203.08,7861.88 L 4953.62,8004.43 L 4709.05,7863.20 L 4707.71,7575.88 L 4458.25,7718.43 L 4213.68,7577.20 L 4213.70,7294.78 L 4458.29,7153.58 L 4707.78,7296.08 L 4709.07,7008.77 L 4953.65,6867.58 L 5203.14,7010.08 L 5204.43,6722.77 L 5449.02,6581.58 L 5698.47,6724.10 L 5699.78,6436.79  z
" style="fill:#11a6c1;fill-opacity:1.00"/>
<path d="M 5944.37,6288.42 L 5693.58,6433.22 L 5693.60,6722.80 L 5944.38,6867.58 L 6195.15,6722.78 L 6195.15,6433.21 L 5944.37,6288.42  z
" style="fill:#dd8149;fill-opacity:1.00"/>
<path d="M 5449.00,6574.42 L 5198.22,6719.22 L 5198.23,7008.80 L 5449.02,7153.58 L 5699.79,7008.78 L 5699.78,6719.21 L 5449.00,6574.42  z
" style="fill:#0eab50;fill-opacity:1.00"/>
<path d="M 6439.73,6574.42 L 6188.95,6719.22 L 6188.96,7008.80 L 6439.75,7153.58 L 6690.52,7008.78 L 6690.51,6719.21 L 6439.73,6574.42  z
" style="fill:#5729ff;fill-opacity:1.00"/>
<path d="M 5694.90,6717.90 L 5694.88,7010.08 L 5947.94,6864.00 L 5694.90,6717.90  z
" style="fill:#11a6c1;fill-opacity:1.00"/>
<path d="M 6193.84,6717.90 L 5940.79,6863.98 L 6193.84,7010.10 L 6193.84,6717.90  z
" style="fill:#11a6c1;fill-opacity:1.00"/>
<path d="M 4953.64,6860.42 L 4702.86,7005.22 L 4702.87,7294.80 L 4953.65,7439.58 L 5204.43,7294.78 L 5204.42,7005.21 L 4953.64,6860.42  z
" style="fill:#97075b;fill-opacity:1.00"/>
<path d="M 5944.37,6860.42 L 5693.58,7005.22 L 5693.60,7294.80 L 5944.38,7439.58 L 6195.15,7294.78 L 6195.15,7005.21 L 5944.37,6860.42  z
" style="fill:#f63f42;fill-opacity:1.00"/>
<path d="M 6935.10,6860.42 L 6684.31,7005.22 L 6684.33,7294.80 L 6935.11,7439.58 L 7185.88,7294.78 L 7185.88,7005.21 L 6935.10,6860.42  z
" style="fill:#f63f42;fill-opacity:1.00"/>
<path d="M 5199.54,7003.90 L 5199.52,7296.08 L 5452.58,7150.00 L 5199.54,7003.90  z
" style="fill:#11a6c1;fill-opacity:1.00"/>
<path d="M 5698.47,7003.90 L 5445.43,7149.98 L 5698.47,7296.10 L 5698.47,7003.90  z
" style="fill:#11a6c1;fill-opacity:1.00"/>
<path d="M 6190.26,7003.90 L 6190.24,7296.08 L 6443.31,7150.00 L 6190.26,7003.90  z
" style="fill:#11a6c1;fill-opacity:1.00"/>
<path d="M 6689.20,7003.90 L 6436.16,7149.98 L 6689.20,7296.10 L 6689.20,7003.90  z
" style="fill:#11a6c1;fill-opacity:1.00"/>
<path d="M 4458.28,7146.42 L 4207.49,7291.22 L 4207.51,7580.80 L 4458.29,7725.58 L 4709.06,7580.78 L 4709.06,7291.21 L 4458.28,7146.42  z
" style="fill:#f63f42;fill-opacity:1.00"/>
<path d="M 5449.00,7146.42 L 5198.22,7291.22 L 5198.23,7580.80 L 5449.02,7725.58 L 5699.79,7580.78 L 5699.78,7291.21 L 5449.00,7146.42  z
" style="fill:#97075b;fill-opacity:1.00"/>
<path d="M 6439.73,7146.42 L 6188.95,7291.22 L 6188.96,7580.80 L 6439.75,7725.58 L 6690.52,7580.78 L 6690.51,7291.21 L 6439.73,7146.42  z
" style="fill:#97075b;fill-opacity:1.00"/>
<path d="M 7430.46,7146.42 L 7179.68,7291.22 L 7179.69,7580.80 L 7430.47,7725.58 L 7681.25,7580.78 L 7681.24,7291.21 L 7430.46,7146.42  z
" style="fill:#0eab50;fill-opacity:1.00"/>
<path d="M 4704.17,7289.90 L 4704.15,7582.08 L 4957.22,7436.00 L 4704.17,7289.90  z
" style="fill:#11a6c1;fill-opacity:1.00"/>
<path d="M 5203.11,7289.90 L 4950.07,7435.98 L 5203.11,7582.10 L 5203.11,7289.90  z
" style="fill:#11a6c1;fill-opacity:1.00"/>
<path d="M 5694.90,7289.90 L 5694.88,7582.08 L 5947.94,7436.00 L 5694.90,7289.90  z
" style="fill:#11a6c1;fill-opacity:1.00"/>
<path d="M 6193.84,7289.90 L 5940.79,7435.98 L 6193.84,7582.10 L 6193.84,7289.90  z
" style="fill:#11a6c1;fill-opacity:1.00"/>
<path d="M 6685.63,7289.90 L 6685.61,7582.08 L 6938.67,7436.00 L 6685.63,7289.90  z
" style="fill:#11a6c1;fill-opacity:1.00"/>
<path d="M 7184.57,7289.90 L 6931.52,7435.98 L 7184.57,7582.10 L 7184.57,7289.90  z
" style="fill:#11a6c1;fill-opacity:1.00"/>
<path d="M 4953.64,7432.42 L 4702.86,7577.22 L 4702.87,7866.80 L 4953.65,8011.58 L 5204.43,7866.78 L 5204.42,7577.21 L 4953.64,7432.42  z
" style="fill:#0eab50;fill-opacity:1.00"/>
<path d="M 5944.37,7432.42 L 5693.58,7577.22 L 5693.60,7866.80 L 5944.38,8011.58 L 6195.15,7866.78 L 6195.15,7577.21 L 5944.37,7432.42  z
" style="fill:#0eab50;fill-opacity:1.00"/>
<path d="M 6935.10,7432.42 L 6684.31,7577.22 L 6684.33,7866.80 L 6935.11,8011.58 L 7185.88,7866.78 L 7185.88,7577.21 L 6935.10,7432.42  z
" style="fill:#97075b;fill-opacity:1.00"/>
<path d="M 5199.54,7575.90 L 5199.52,7868.08 L 5452.58,7722.00 L 5199.54,7575.90  z
" style="fill:#11a6c1;fill-opacity:1.00"/>
<path d="M 5698.47,7575.90 L 5445.43,7721.98 L 5698.47,7868.10 L 5698.47,7575.90  z
" style="fill:#11a6c1;fill-opacity:1.00"/>
<path d="M 6190.26,7575.90 L 6190.24,7868.08 L 6443.31,7722.00 L 6190.26,7575.90  z
" style="fill:#11a6c1;fill-opacity:1.00"/>
<path d="M 6689.20,7575.90 L 6436.16,7721.98 L 6689.20,7868.10 L 6689.20,7575.90  z
" style="fill:#11a6c1;fill-opacity:1.00"/>
<path d="M 5449.00,7718.42 L 5198.22,7863.22 L 5198.23,8152.80 L 5449.02,8297.58 L 5699.79,8152.78 L 5699.78,7863.21 L 5449.00,7718.42  z
" style="fill:#dd8149;fill-opacity:1.00"/>
<path d="M 6439.73,7718.42 L 6188.95,7863.22 L 6188.96,8152.80 L 6439.75,8297.58 L 6690.52,8152.78 L 6690.51,7863.21 L 6439.73,7718.42  z
" style="fill:#f63f42;fill-opacity:1.00"/>
<path d="M 5694.90,7861.90 L 5694.88,8154.08 L 5947.94,8008.00 L 5694.90,7861.90  z
" style="fill:#11a6c1;fill-opacity:1.00"/>
<path d="M 6193.84,7861.90 L 5940.79,8007.98 L 6193.84,8154.10 L 6193.84,7861.90  z
" style="fill:#11a6c1;fill-opacity:1.00"/>
<path d="M 5944.37,8004.42 L 5693.58,8149.22 L 5693.60,8438.80 L 5944.38,8583.58 L 6195.15,8438.78 L 6195.15,8149.21 L 5944.37,8004.42  z
" style="fill:#5729ff;fill-opacity:1.00"/>
</g>
<g id="Outlines">
<polygon points="5820.53, 5791.50  5847.45, 5838.12, 5723.60, 5909.62,  5696.69, 5863.00" style="fill:#095462;fill-opacity:1.00"/>
<polygon points="5944.37, 5720.00  5971.29, 5766.62, 5847.45, 5838.12,  5820.53, 5791.50" style="fill:#095462;fill-opacity:1.00"/>
<polygon points="6068.21, 5791.50  6041.29, 5838.12, 5917.45, 5766.62,  5944.37, 5720.00" style="fill:#095462;fill-opacity:1.00"/>
<polygon points="6192.05, 5863.00  6165.13, 5909.62, 6041.29, 5838.12,  6068.21, 5791.50" style="fill:#095462;fill-opacity:1.00"/>
<polygon points="5572.85, 5934.50  5599.76, 5981.12, 5475.92, 6052.62,  5449.00, 6006.00" style="fill:#095462;fill-opacity:1.00"/>
<polygon points="5696.69, 5863.00  5723.60, 5909.62, 5599.76, 5981.12,  5572.85, 5934.50" style="fill:#095462;fill-opacity:1.00"/>
<polygon points="6315.89, 5934.50  6288.97, 5981.12, 6165.13, 5909.62,  6192.05, 5863.00" style="fill:#095462;fill-opacity:1.00"/>
<polygon points="6439.73, 6006.00  6412.81, 6052.62, 6288.97, 5981.12,  6315.89, 5934.50" style="fill:#095462;fill-opacity:1.00"/>
<polygon points="5325.16, 6077.50  5352.08, 6124.12, 5228.24, 6195.62,  5201.32, 6149.00" style="fill:#095462;fill-opacity:1.00"/>
<polygon points="5449.00, 6006.00  5475.92, 6052.62, 5352.08, 6124.12,  5325.16, 6077.50" style="fill:#095462;fill-opacity:1.00"/>
<polygon points="6563.57, 6077.50  6536.66, 6124.12, 6412.81, 6052.62,  6439.73, 6006.00" style="fill:#095462;fill-opacity:1.00"/>
<polygon points="6687.42, 6149.00  6660.50, 6195.62, 6536.66, 6124.12,  6563.57, 6077.50" style="fill:#095462;fill-opacity:1.00"/>
<polygon points="5077.48, 6220.50  5104.40, 6267.12, 4980.56, 6338.62,  4953.64, 6292.00" style="fill:#095462;fill-opacity:1.00"/>
<polygon points="5201.32, 6149.00  5228.24, 6195.62, 5104.40, 6267.12,  5077.48, 6220.50" style="fill:#095462;fill-opacity:1.00"/>
<polygon points="6811.26, 6220.50  6784.34, 6267.12, 6660.50, 6195.62,  6687.41, 6149.00" style="fill:#095462;fill-opacity:1.00"/>
<polygon points="6935.10, 6292.00  6908.18, 6338.62, 6784.34, 6267.12,  6811.26, 6220.50" style="fill:#095462;fill-opacity:1.00"/>
<polygon points="4829.80, 6363.50  4856.72, 6410.12, 4732.88, 6481.62,  4705.96, 6435.00" style="fill:#095462;fill-opacity:1.00"/>
<polygon points="4953.64, 6292.00  4980.56, 6338.62, 4856.72, 6410.12,  4829.80, 6363.50" style="fill:#095462;fill-opacity:1.00"/>
<polygon points="5820.53, 6363.50  5827.26, 6375.16, 5703.42, 6446.66,  5696.69, 6435.00" style="fill:#000000;fill-opacity:1.00"/>
<polygon points="5944.37, 6292.00  5944.37, 6307.54, 5827.26, 6375.16,  5820.53, 6363.50" style="fill:#000000;fill-opacity:1.00"/>
<polygon points="6068.21, 6363.50  6061.48, 6375.16, 5944.37, 6307.54,  5944.37, 6292.00" style="fill:#000000;fill-opacity:1.00"/>
<polygon points="6192.05, 6435.00  6178.59, 6442.77, 6061.48, 6375.16,  6068.21, 6363.50" style="fill:#000000;fill-opacity:1.00"/>
<polygon points="7058.94, 6363.50  7032.02, 6410.12, 6908.18, 6338.62,  6935.10, 6292.00" style="fill:#095462;fill-opacity:1.00"/>
<polygon points="7182.78, 6435.00  7155.86, 6481.62, 7032.02, 6410.12,  7058.94, 6363.50" style="fill:#095462;fill-opacity:1.00"/>
<polygon points="4582.12, 6506.50  4609.04, 6553.12, 4485.19, 6624.62,  4458.28, 6578.00" style="fill:#095462;fill-opacity:1.00"/>
<polygon points="4705.96, 6435.00  4732.88, 6481.62, 4609.04, 6553.12,  4582.12, 6506.50" style="fill:#095462;fill-opacity:1.00"/>
<polygon points="5696.69, 6435.00  5710.15, 6435.00, 5710.15, 6578.00,  5696.69, 6578.00" style="fill:#000000;fill-opacity:1.00"/>
<polygon points="5820.53, 6506.50  5813.80, 6518.16, 5689.96, 6446.66,  5696.69, 6435.00" style="fill:#000000;fill-opacity:1.00"/>
<polygon points="5944.37, 6578.00  5944.37, 6593.54, 5813.80, 6518.16,  5820.53, 6506.50" style="fill:#000000;fill-opacity:1.00"/>
<polygon points="6068.21, 6506.50  6074.94, 6518.16, 5944.37, 6593.54,  5944.37, 6578.00" style="fill:#000000;fill-opacity:1.00"/>
<polygon points="6192.05, 6435.00  6198.78, 6446.66, 6074.94, 6518.16,  6068.21, 6506.50" style="fill:#000000;fill-opacity:1.00"/>
<polygon points="6192.05, 6578.00  6178.59, 6578.00, 6178.59, 6442.77,  6192.05, 6435.00" style="fill:#000000;fill-opacity:1.00"/>
<polygon points="7306.62, 6506.50  7279.70, 6553.12, 7155.86, 6481.62,  7182.78, 6435.00" style="fill:#095462;fill-opacity:1.00"/>
<polygon points="7430.46, 6578.00  7403.54, 6624.62, 7279.70, 6553.12,  7306.62, 6506.50" style="fill:#095462;fill-opacity:1.00"/>
<polygon points="5696.69, 6578.00  5710.15, 6578.00, 5710.15, 6713.23,  5696.69, 6721.00" style="fill:#000000;fill-opacity:1.00"/>
<polygon points="6192.05, 6721.00  6178.59, 6721.00, 6178.59, 6578.00,  6192.05, 6578.00" style="fill:#000000;fill-opacity:1.00"/>
<polygon points="4334.44, 6649.50  4361.35, 6696.12, 4237.51, 6767.62,  4210.59, 6721.00" style="fill:#095462;fill-opacity:1.00"/>
<polygon points="4458.28, 6578.00  4485.19, 6624.62, 4361.35, 6696.12,  4334.44, 6649.50" style="fill:#095462;fill-opacity:1.00"/>
<polygon points="5325.16, 6649.50  5331.89, 6661.16, 5208.05, 6732.66,  5201.32, 6721.00" style="fill:#000000;fill-opacity:1.00"/>
<polygon points="5449.00, 6578.00  5449.00, 6593.54, 5331.89, 6661.16,  5325.16, 6649.50" style="fill:#000000;fill-opacity:1.00"/>
<polygon points="5572.85, 6649.50  5566.12, 6661.16, 5449.00, 6593.54,  5449.00, 6578.00" style="fill:#000000;fill-opacity:1.00"/>
<polygon points="5696.69, 6721.00  5683.23, 6728.77, 5566.12, 6661.16,  5572.85, 6649.50" style="fill:#000000;fill-opacity:1.00"/>
<polygon points="5944.37, 6578.00  5957.83, 6578.00, 5957.83, 6721.00,  5944.37, 6721.00" style="fill:#000000;fill-opacity:1.00"/>
<polygon points="6315.89, 6649.50  6322.62, 6661.16, 6205.51, 6728.77,  6192.05, 6721.00" style="fill:#000000;fill-opacity:1.00"/>
<polygon points="6439.73, 6578.00  6446.46, 6589.66, 6322.62, 6661.16,  6315.89, 6649.50" style="fill:#000000;fill-opacity:1.00"/>
<polygon points="6563.57, 6649.50  6556.84, 6661.16, 6433.00, 6589.66,  6439.73, 6578.00" style="fill:#000000;fill-opacity:1.00"/>
<polygon points="6687.42, 6721.00  6673.96, 6728.77, 6556.84, 6661.16,  6563.57, 6649.50" style="fill:#000000;fill-opacity:1.00"/>
<polygon points="7554.30, 6649.50  7527.38, 6696.12, 7403.54, 6624.62,  7430.46, 6578.00" style="fill:#095462;fill-opacity:1.00"/>
<polygon points="7678.14, 6721.00  7651.23, 6767.62, 7527.38, 6696.12,  7554.30, 6649.50" style="fill:#095462;fill-opacity:1.00"/>
<polygon points="5449.00, 6864.00  5435.55, 6856.23, 5566.12, 6780.84,  5572.85, 6792.50" style="fill:#000000;fill-opacity:1.00"/>
<polygon points="5572.85, 6792.50  5566.12, 6780.84, 5689.96, 6709.34,  5696.69, 6721.00" style="fill:#000000;fill-opacity:1.00"/>
<polygon points="5696.69, 6721.00  5710.15, 6713.23, 5827.26, 6780.84,  5820.53, 6792.50" style="fill:#000000;fill-opacity:1.00"/>
<polygon points="5820.53, 6792.50  5827.26, 6780.84, 5944.37, 6848.46,  5944.37, 6864.00" style="fill:#000000;fill-opacity:1.00"/>
<polygon points="5944.37, 6721.00  5957.83, 6721.00, 5957.83, 6864.00,  5944.37, 6864.00" style="fill:#000000;fill-opacity:1.00"/>
<polygon points="5944.37, 6864.00  5944.37, 6848.46, 6061.48, 6780.84,  6068.21, 6792.50" style="fill:#000000;fill-opacity:1.00"/>
<polygon points="6068.21, 6792.50  6061.48, 6780.84, 6185.32, 6709.34,  6192.05, 6721.00" style="fill:#000000;fill-opacity:1.00"/>
<polygon points="4086.75, 6792.50  4113.67, 6839.12, 3989.83, 6910.62,  3962.91, 6864.00" style="fill:#095462;fill-opacity:1.00"/>
<polygon points="4210.59, 6721.00  4237.51, 6767.62, 4113.67, 6839.12,  4086.75, 6792.50" style="fill:#095462;fill-opacity:1.00"/>
<polygon points="5201.32, 6721.00  5214.78, 6721.00, 5214.78, 6864.00,  5201.32, 6864.00" style="fill:#000000;fill-opacity:1.00"/>
<polygon points="5325.16, 6792.50  5318.43, 6804.16, 5194.59, 6732.66,  5201.32, 6721.00" style="fill:#000000;fill-opacity:1.00"/>
<polygon points="5449.00, 6864.00  5435.55, 6871.77, 5318.43, 6804.16,  5325.16, 6792.50" style="fill:#000000;fill-opacity:1.00"/>
<polygon points="5696.69, 6864.00  5683.23, 6864.00, 5683.23, 6728.77,  5696.69, 6721.00" style="fill:#000000;fill-opacity:1.00"/>
<polygon points="6192.05, 6721.00  6205.51, 6728.77, 6205.51, 6864.00,  6192.05, 6864.00" style="fill:#000000;fill-opacity:1.00"/>
<polygon points="6315.89, 6792.50  6309.16, 6804.16, 6185.32, 6732.66,  6192.05, 6721.00" style="fill:#000000;fill-opacity:1.00"/>
<polygon points="6439.73, 6864.00  6439.73, 6879.54, 6309.16, 6804.16,  6315.89, 6792.50" style="fill:#000000;fill-opacity:1.00"/>
<polygon points="6563.57, 6792.50  6570.30, 6804.16, 6439.73, 6879.54,  6439.73, 6864.00" style="fill:#000000;fill-opacity:1.00"/>
<polygon points="6687.41, 6721.00  6694.14, 6732.66, 6570.30, 6804.16,  6563.57, 6792.50" style="fill:#000000;fill-opacity:1.00"/>
<polygon points="6687.41, 6864.00  6673.96, 6864.00, 6673.96, 6728.77,  6687.41, 6721.00" style="fill:#000000;fill-opacity:1.00"/>
<polygon points="7801.98, 6792.50  7775.07, 6839.12, 7651.22, 6767.62,  7678.14, 6721.00" style="fill:#095462;fill-opacity:1.00"/>
<polygon points="7925.83, 6864.00  7898.91, 6910.62, 7775.07, 6839.12,  7801.98, 6792.50" style="fill:#095462;fill-opacity:1.00"/>
<polygon points="5201.32, 6864.00  5214.78, 6864.00, 5214.78, 6999.23,  5201.32, 7007.00" style="fill:#000000;fill-opacity:1.00"/>
<polygon points="5696.69, 7007.00  5683.23, 7007.00, 5683.23, 6864.00,  5696.69, 6864.00" style="fill:#000000;fill-opacity:1.00"/>
<polygon points="6192.05, 6864.00  6205.51, 6864.00, 6205.51, 7007.00,  6192.05, 7007.00" style="fill:#000000;fill-opacity:1.00"/>
<polygon points="6687.41, 7007.00  6673.96, 6999.23, 6673.96, 6864.00,  6687.41, 6864.00" style="fill:#000000;fill-opacity:1.00"/>
<polygon points="3839.07, 6935.50  3865.99, 6982.12, 3742.15, 7053.62,  3715.23, 7007.00" style="fill:#095462;fill-opacity:1.00"/>
<polygon points="3962.91, 6864.00  3989.83, 6910.62, 3865.99, 6982.12,  3839.07, 6935.50" style="fill:#095462;fill-opacity:1.00"/>
<polygon points="4829.80, 6935.50  4836.53, 6947.16, 4712.69, 7018.66,  4705.96, 7007.00" style="fill:#000000;fill-opacity:1.00"/>
<polygon points="4953.64, 6864.00  4953.64, 6879.54, 4836.53, 6947.16,  4829.80, 6935.50" style="fill:#000000;fill-opacity:1.00"/>
<polygon points="5077.48, 6935.50  5070.75, 6947.16, 4953.64, 6879.54,  4953.64, 6864.00" style="fill:#000000;fill-opacity:1.00"/>
<polygon points="5201.32, 7007.00  5187.86, 7014.77, 5070.75, 6947.16,  5077.48, 6935.50" style="fill:#000000;fill-opacity:1.00"/>
<polygon points="5449.00, 6864.00  5462.46, 6864.00, 5462.46, 7007.00,  5449.00, 7007.00" style="fill:#000000;fill-opacity:1.00"/>
<polygon points="5820.53, 6935.50  5827.26, 6947.16, 5703.42, 7018.66,  5696.69, 7007.00" style="fill:#000000;fill-opacity:1.00"/>
<polygon points="5944.37, 6864.00  5944.37, 6879.54, 5827.26, 6947.16,  5820.53, 6935.50" style="fill:#000000;fill-opacity:1.00"/>
<polygon points="6068.21, 6935.50  6061.48, 6947.16, 5944.37, 6879.54,  5944.37, 6864.00" style="fill:#000000;fill-opacity:1.00"/>
<polygon points="6192.05, 7007.00  6178.59, 7014.77, 6061.48, 6947.16,  6068.21, 6935.50" style="fill:#000000;fill-opacity:1.00"/>
<polygon points="6439.73, 6864.00  6453.19, 6864.00, 6453.19, 7007.00,  6439.73, 7007.00" style="fill:#000000;fill-opacity:1.00"/>
<polygon points="6811.26, 6935.50  6817.98, 6947.16, 6700.87, 7014.77,  6687.41, 7007.00" style="fill:#000000;fill-opacity:1.00"/>
<polygon points="6935.10, 6864.00  6935.10, 6879.54, 6817.98, 6947.16,  6811.26, 6935.50" style="fill:#000000;fill-opacity:1.00"/>
<polygon points="7058.94, 6935.50  7052.21, 6947.16, 6935.10, 6879.54,  6935.10, 6864.00" style="fill:#000000;fill-opacity:1.00"/>
<polygon points="7182.78, 7007.00  7169.32, 7014.77, 7052.21, 6947.16,  7058.94, 6935.50" style="fill:#000000;fill-opacity:1.00"/>
<polygon points="8049.67, 6935.50  8022.75, 6982.12, 7898.91, 6910.62,  7925.83, 6864.00" style="fill:#095462;fill-opacity:1.00"/>
<polygon points="8173.51, 7007.00  8146.59, 7053.62, 8022.75, 6982.12,  8049.67, 6935.50" style="fill:#095462;fill-opacity:1.00"/>
<polygon points="5201.32, 7007.00  5214.78, 6999.23, 5331.89, 7066.84,  5325.16, 7078.50" style="fill:#000000;fill-opacity:1.00"/>
<polygon points="5325.16, 7078.50  5331.89, 7066.84, 5449.00, 7134.46,  5449.00, 7150.00" style="fill:#000000;fill-opacity:1.00"/>
<polygon points="5449.00, 7007.00  5462.46, 7007.00, 5462.46, 7150.00,  5449.00, 7150.00" style="fill:#000000;fill-opacity:1.00"/>
<polygon points="5449.00, 7150.00  5449.00, 7134.46, 5566.12, 7066.84,  5572.85, 7078.50" style="fill:#000000;fill-opacity:1.00"/>
<polygon points="5572.85, 7078.50  5566.12, 7066.84, 5689.96, 6995.34,  5696.69, 7007.00" style="fill:#000000;fill-opacity:1.00"/>
<polygon points="6192.05, 7007.00  6198.78, 6995.34, 6322.62, 7066.84,  6315.89, 7078.50" style="fill:#000000;fill-opacity:1.00"/>
<polygon points="6315.89, 7078.50  6322.62, 7066.84, 6446.46, 7138.34,  6439.73, 7150.00" style="fill:#000000;fill-opacity:1.00"/>
<polygon points="6439.73, 7007.00  6453.19, 7007.00, 6453.19, 7150.00,  6439.73, 7150.00" style="fill:#000000;fill-opacity:1.00"/>
<polygon points="6439.73, 7150.00  6433.00, 7138.34, 6556.84, 7066.84,  6563.57, 7078.50" style="fill:#000000;fill-opacity:1.00"/>
<polygon points="6563.57, 7078.50  6556.84, 7066.84, 6673.96, 6999.23,  6687.42, 7007.00" style="fill:#000000;fill-opacity:1.00"/>
<polygon points="3591.39, 7078.50  3618.31, 7125.12, 3494.47, 7196.62,  3467.55, 7150.00" style="fill:#095462;fill-opacity:1.00"/>
<polygon points="3715.23, 7007.00  3742.15, 7053.62, 3618.31, 7125.12,  3591.39, 7078.50" style="fill:#095462;fill-opacity:1.00"/>
<polygon points="4705.96, 7007.00  4719.42, 7007.00, 4719.42, 7150.00,  4705.96, 7150.00" style="fill:#000000;fill-opacity:1.00"/>
<polygon points="4829.80, 7078.50  4823.07, 7090.16, 4699.23, 7018.66,  4705.96, 7007.00" style="fill:#000000;fill-opacity:1.00"/>
<polygon points="4953.64, 7150.00  4953.64, 7165.54, 4823.07, 7090.16,  4829.80, 7078.50" style="fill:#000000;fill-opacity:1.00"/>
<polygon points="5077.48, 7078.50  5084.21, 7090.16, 4953.64, 7165.54,  4953.64, 7150.00" style="fill:#000000;fill-opacity:1.00"/>
<polygon points="5201.32, 7007.00  5208.05, 7018.66, 5084.21, 7090.16,  5077.48, 7078.50" style="fill:#000000;fill-opacity:1.00"/>
<polygon points="5201.32, 7150.00  5187.86, 7150.00, 5187.86, 7014.77,  5201.32, 7007.00" style="fill:#000000;fill-opacity:1.00"/>
<polygon points="5696.69, 7007.00  5710.15, 7007.00, 5710.15, 7150.00,  5696.69, 7150.00" style="fill:#000000;fill-opacity:1.00"/>
<polygon points="5820.53, 7078.50  5813.80, 7090.16, 5689.96, 7018.66,  5696.69, 7007.00" style="fill:#000000;fill-opacity:1.00"/>
<polygon points="5944.37, 7150.00  5944.37, 7165.54, 5813.80, 7090.16,  5820.53, 7078.50" style="fill:#000000;fill-opacity:1.00"/>
<polygon points="6068.21, 7078.50  6074.94, 7090.16, 5944.37, 7165.54,  5944.37, 7150.00" style="fill:#000000;fill-opacity:1.00"/>
<polygon points="6192.05, 7007.00  6198.78, 7018.66, 6074.94, 7090.16,  6068.21, 7078.50" style="fill:#000000;fill-opacity:1.00"/>
<polygon points="6192.05, 7150.00  6178.59, 7150.00, 6178.59, 7014.77,  6192.05, 7007.00" style="fill:#000000;fill-opacity:1.00"/>
<polygon points="6687.41, 7007.00  6700.87, 7014.77, 6700.87, 7150.00,  6687.41, 7150.00" style="fill:#000000;fill-opacity:1.00"/>
<polygon points="6811.26, 7078.50  6804.53, 7090.16, 6680.69, 7018.66,  6687.41, 7007.00" style="fill:#000000;fill-opacity:1.00"/>
<polygon points="6935.10, 7150.00  6935.10, 7165.54, 6804.53, 7090.16,  6811.26, 7078.50" style="fill:#000000;fill-opacity:1.00"/>
<polygon points="7058.94, 7078.50  7065.67, 7090.16, 6935.10, 7165.54,  6935.10, 7150.00" style="fill:#000000;fill-opacity:1.00"/>
<polygon points="7182.78, 7007.00  7189.51, 7018.66, 7065.67, 7090.16,  7058.94, 7078.50" style="fill:#000000;fill-opacity:1.00"/>
<polygon points="7182.78, 7150.00  7169.32, 7150.00, 7169.32, 7014.77,  7182.78, 7007.00" style="fill:#000000;fill-opacity:1.00"/>
<polygon points="8297.35, 7078.50  8270.43, 7125.12, 8146.59, 7053.62,  8173.51, 7007.00" style="fill:#095462;fill-opacity:1.00"/>
<polygon points="8421.19, 7150.00  8394.27, 7196.62, 8270.43, 7125.12,  8297.35, 7078.50" style="fill:#095462;fill-opacity:1.00"/>
<polygon points="4705.96, 7150.00  4719.42, 7150.00, 4719.42, 7285.23,  4705.96, 7293.00" style="fill:#000000;fill-opacity:1.00"/>
<polygon points="5201.32, 7293.00  5187.86, 7293.00, 5187.86, 7150.00,  5201.32, 7150.00" style="fill:#000000;fill-opacity:1.00"/>
<polygon points="5696.69, 7150.00  5710.15, 7150.00, 5710.15, 7300.77,  5696.69, 7293.00" style="fill:#000000;fill-opacity:1.00"/>
<polygon points="6192.05, 7293.00  6178.59, 7293.00, 6178.59, 7150.00,  6192.05, 7150.00" style="fill:#000000;fill-opacity:1.00"/>
<polygon points="6687.42, 7150.00  6700.87, 7150.00, 6700.87, 7316.31,  6687.42, 7293.00" style="fill:#000000;fill-opacity:1.00"/>
<polygon points="7182.78, 7293.00  7169.32, 7285.23, 7169.32, 7150.00,  7182.78, 7150.00" style="fill:#000000;fill-opacity:1.00"/>
<polygon points="3343.71, 7221.50  3370.63, 7268.12, 3246.78, 7339.62,  3219.87, 7293.00" style="fill:#095462;fill-opacity:1.00"/>
<polygon points="3467.55, 7150.00  3494.47, 7196.62, 3370.62, 7268.12,  3343.71, 7221.50" style="fill:#095462;fill-opacity:1.00"/>
<polygon points="4334.44, 7221.50  4341.17, 7233.16, 4217.32, 7304.66,  4210.59, 7293.00" style="fill:#000000;fill-opacity:1.00"/>
<polygon points="4458.28, 7150.00  4458.28, 7165.54, 4341.17, 7233.16,  4334.44, 7221.50" style="fill:#000000;fill-opacity:1.00"/>
<polygon points="4582.12, 7221.50  4575.39, 7233.16, 4458.28, 7165.54,  4458.28, 7150.00" style="fill:#000000;fill-opacity:1.00"/>
<polygon points="4705.96, 7293.00  4692.50, 7300.77, 4575.39, 7233.16,  4582.12, 7221.50" style="fill:#000000;fill-opacity:1.00"/>
<polygon points="4953.64, 7150.00  4967.10, 7150.00, 4967.10, 7293.00,  4953.64, 7293.00" style="fill:#000000;fill-opacity:1.00"/>
<polygon points="5325.16, 7221.50  5331.89, 7233.16, 5208.05, 7304.66,  5201.32, 7293.00" style="fill:#000000;fill-opacity:1.00"/>
<polygon points="5449.00, 7150.00  5449.00, 7165.54, 5331.89, 7233.16,  5325.16, 7221.50" style="fill:#000000;fill-opacity:1.00"/>
<polygon points="5572.85, 7221.50  5566.12, 7233.16, 5449.00, 7165.54,  5449.00, 7150.00" style="fill:#000000;fill-opacity:1.00"/>
<polygon points="5696.69, 7293.00  5683.23, 7300.77, 5566.12, 7233.16,  5572.85, 7221.50" style="fill:#000000;fill-opacity:1.00"/>
<polygon points="5944.37, 7293.00  5930.91, 7293.00, 5930.91, 7150.00,  5944.37, 7150.00" style="fill:#000000;fill-opacity:1.00"/>
<polygon points="6315.89, 7221.50  6322.62, 7233.16, 6198.78, 7304.66,  6192.05, 7293.00" style="fill:#000000;fill-opacity:1.00"/>
<polygon points="6439.73, 7150.00  6439.73, 7165.54, 6322.62, 7233.16,  6315.89, 7221.50" style="fill:#000000;fill-opacity:1.00"/>
<polygon points="6563.57, 7221.50  6556.84, 7233.16, 6439.73, 7165.54,  6439.73, 7150.00" style="fill:#000000;fill-opacity:1.00"/>
<polygon points="6687.42, 7293.00  6700.87, 7316.31, 6556.84, 7233.16,  6563.57, 7221.50" style="fill:#000000;fill-opacity:1.00"/>
<polygon points="6935.10, 7150.00  6948.56, 7150.00, 6948.56, 7293.00,  6935.10, 7293.00" style="fill:#000000;fill-opacity:1.00"/>
<polygon points="7306.62, 7221.50  7313.35, 7233.16, 7189.51, 7304.66,  7182.78, 7293.00" style="fill:#000000;fill-opacity:1.00"/>
<polygon points="7430.46, 7150.00  7430.46, 7165.54, 7313.35, 7233.16,  7306.62, 7221.50" style="fill:#000000;fill-opacity:1.00"/>
<polygon points="7554.30, 7221.50  7547.57, 7233.16, 7430.46, 7165.54,  7430.46, 7150.00" style="fill:#000000;fill-opacity:1.00"/>
<polygon points="7678.14, 7293.00  7664.68, 7300.77, 7547.57, 7233.16,  7554.30, 7221.50" style="fill:#000000;fill-opacity:1.00"/>
<polygon points="8545.03, 7221.50  8518.11, 7268.12, 8394.27, 7196.62,  8421.19, 7150.00" style="fill:#095462;fill-opacity:1.00"/>
<polygon points="8668.87, 7293.00  8641.95, 7339.62, 8518.11, 7268.12,  8545.03, 7221.50" style="fill:#095462;fill-opacity:1.00"/>
<polygon points="4705.96, 7293.00  4719.42, 7285.23, 4836.53, 7352.84,  4829.80, 7364.50" style="fill:#000000;fill-opacity:1.00"/>
<polygon points="4829.80, 7364.50  4836.53, 7352.84, 4953.64, 7420.46,  4953.64, 7436.00" style="fill:#000000;fill-opacity:1.00"/>
<polygon points="4953.64, 7293.00  4967.10, 7293.00, 4967.10, 7436.00,  4953.64, 7436.00" style="fill:#000000;fill-opacity:1.00"/>
<polygon points="4953.64, 7436.00  4953.64, 7420.46, 5070.75, 7352.84,  5077.48, 7364.50" style="fill:#000000;fill-opacity:1.00"/>
<polygon points="5077.48, 7364.50  5070.75, 7352.84, 5194.59, 7281.34,  5201.32, 7293.00" style="fill:#000000;fill-opacity:1.00"/>
<polygon points="5944.37, 7436.00  5930.91, 7436.00, 5930.91, 7293.00,  5944.37, 7293.00" style="fill:#000000;fill-opacity:1.00"/>
<polygon points="6687.41, 7293.00  6694.14, 7281.34, 6817.98, 7352.84,  6811.26, 7364.50" style="fill:#000000;fill-opacity:1.00"/>
<polygon points="6811.26, 7364.50  6817.99, 7352.84, 6935.10, 7420.46,  6935.10, 7436.00" style="fill:#000000;fill-opacity:1.00"/>
<polygon points="6935.10, 7293.00  6948.56, 7293.00, 6948.56, 7436.00,  6935.10, 7436.00" style="fill:#000000;fill-opacity:1.00"/>
<polygon points="6935.10, 7436.00  6935.10, 7420.46, 7052.21, 7352.84,  7058.94, 7364.50" style="fill:#000000;fill-opacity:1.00"/>
<polygon points="7058.94, 7364.50  7052.21, 7352.84, 7169.32, 7285.23,  7182.78, 7293.00" style="fill:#000000;fill-opacity:1.00"/>
<polygon points="7430.46, 7436.00  7417.00, 7428.23, 7547.57, 7352.84,  7554.30, 7364.50" style="fill:#000000;fill-opacity:1.00"/>
<polygon points="7554.30, 7364.50  7547.57, 7352.84, 7671.41, 7281.34,  7678.14, 7293.00" style="fill:#000000;fill-opacity:1.00"/>
<polygon points="3096.03, 7364.50  3122.94, 7411.12, 3026.02, 7467.08,  2972.18, 7436.00" style="fill:#095462;fill-opacity:1.00"/>
<polygon points="3219.87, 7293.00  3246.78, 7339.62, 3122.94, 7411.12,  3096.03, 7364.50" style="fill:#095462;fill-opacity:1.00"/>
<polygon points="4210.59, 7293.00  4224.05, 7293.00, 4224.05, 7436.00,  4210.59, 7436.00" style="fill:#000000;fill-opacity:1.00"/>
<polygon points="4334.44, 7364.50  4327.71, 7376.16, 4203.87, 7304.66,  4210.59, 7293.00" style="fill:#000000;fill-opacity:1.00"/>
<polygon points="4458.28, 7436.00  4458.28, 7451.54, 4327.71, 7376.16,  4334.44, 7364.50" style="fill:#000000;fill-opacity:1.00"/>
<polygon points="4582.12, 7364.50  4588.85, 7376.16, 4458.28, 7451.54,  4458.28, 7436.00" style="fill:#000000;fill-opacity:1.00"/>
<polygon points="4705.96, 7293.00  4712.69, 7304.66, 4588.85, 7376.16,  4582.12, 7364.50" style="fill:#000000;fill-opacity:1.00"/>
<polygon points="4705.96, 7436.00  4692.50, 7436.00, 4692.50, 7300.77,  4705.96, 7293.00" style="fill:#000000;fill-opacity:1.00"/>
<polygon points="5201.32, 7293.00  5214.78, 7316.31, 5214.78, 7436.00,  5201.32, 7436.00" style="fill:#000000;fill-opacity:1.00"/>
<polygon points="5325.16, 7364.50  5318.43, 7376.16, 5214.78, 7316.31,  5201.32, 7293.00" style="fill:#000000;fill-opacity:1.00"/>
<polygon points="5449.00, 7436.00  5449.00, 7451.54, 5318.43, 7376.16,  5325.16, 7364.50" style="fill:#000000;fill-opacity:1.00"/>
<polygon points="5572.85, 7364.50  5579.58, 7376.16, 5449.00, 7451.54,  5449.00, 7436.00" style="fill:#000000;fill-opacity:1.00"/>
<polygon points="5696.69, 7293.00  5703.42, 7304.66, 5579.58, 7376.16,  5572.85, 7364.50" style="fill:#000000;fill-opacity:1.00"/>
<polygon points="5696.69, 7436.00  5683.23, 7436.00, 5683.23, 7300.77,  5696.69, 7293.00" style="fill:#000000;fill-opacity:1.00"/>
<polygon points="5820.53, 7364.50  5813.80, 7376.16, 5696.69, 7308.54,  5696.69, 7293.00" style="fill:#000000;fill-opacity:1.00"/>
<polygon points="5944.37, 7436.00  5944.37, 7451.54, 5813.80, 7376.16,  5820.53, 7364.50" style="fill:#000000;fill-opacity:1.00"/>
<polygon points="6068.21, 7364.50  6074.94, 7376.16, 5944.37, 7451.54,  5944.37, 7436.00" style="fill:#000000;fill-opacity:1.00"/>
<polygon points="6192.05, 7293.00  6198.78, 7304.66, 6074.94, 7376.16,  6068.21, 7364.50" style="fill:#000000;fill-opacity:1.00"/>
<polygon points="6192.05, 7293.00  6205.51, 7293.00, 6205.51, 7436.00,  6192.05, 7436.00" style="fill:#000000;fill-opacity:1.00"/>
<polygon points="6315.89, 7364.50  6309.16, 7376.16, 6185.32, 7304.66,  6192.05, 7293.00" style="fill:#000000;fill-opacity:1.00"/>
<polygon points="6439.73, 7436.00  6439.73, 7451.54, 6309.16, 7376.16,  6315.89, 7364.50" style="fill:#000000;fill-opacity:1.00"/>
<polygon points="6563.57, 7364.50  6570.30, 7376.16, 6439.73, 7451.54,  6439.73, 7436.00" style="fill:#000000;fill-opacity:1.00"/>
<polygon points="6687.41, 7293.00  6694.14, 7304.66, 6570.30, 7376.16,  6563.57, 7364.50" style="fill:#000000;fill-opacity:1.00"/>
<polygon points="6687.41, 7293.00  6700.87, 7300.77, 6700.87, 7436.00,  6687.41, 7436.00" style="fill:#000000;fill-opacity:1.00"/>
<polygon points="7182.78, 7293.00  7196.24, 7293.00, 7196.24, 7436.00,  7182.78, 7436.00" style="fill:#000000;fill-opacity:1.00"/>
<polygon points="7306.62, 7364.50  7299.89, 7376.16, 7176.05, 7304.66,  7182.78, 7293.00" style="fill:#000000;fill-opacity:1.00"/>
<polygon points="7430.46, 7436.00  7417.00, 7443.77, 7299.89, 7376.16,  7306.62, 7364.50" style="fill:#000000;fill-opacity:1.00"/>
<polygon points="7678.14, 7436.00  7664.68, 7436.00, 7664.68, 7300.77,  7678.14, 7293.00" style="fill:#000000;fill-opacity:1.00"/>
<polygon points="8792.71, 7364.50  8765.79, 7411.12, 8641.95, 7339.62,  8668.87, 7293.00" style="fill:#095462;fill-opacity:1.00"/>
<polygon points="8916.55, 7436.00  8889.64, 7482.62, 8765.79, 7411.12,  8792.71, 7364.50" style="fill:#095462;fill-opacity:1.00"/>
<polygon points="4210.59, 7436.00  4224.05, 7436.00, 4224.05, 7586.77,  4210.59, 7579.00" style="fill:#000000;fill-opacity:1.00"/>
<polygon points="4705.96, 7579.00  4692.50, 7579.00, 4692.50, 7436.00,  4705.96, 7436.00" style="fill:#000000;fill-opacity:1.00"/>
<polygon points="5201.32, 7436.00  5214.78, 7436.00, 5214.78, 7579.00,  5201.32, 7579.00" style="fill:#000000;fill-opacity:1.00"/>
<polygon points="5696.69, 7579.00  5683.23, 7579.00, 5683.23, 7436.00,  5696.69, 7436.00" style="fill:#000000;fill-opacity:1.00"/>
<polygon points="6192.05, 7436.00  6205.51, 7436.00, 6205.51, 7586.77,  6192.05, 7579.00" style="fill:#000000;fill-opacity:1.00"/>
<polygon points="6687.42, 7436.00  6700.87, 7436.00, 6700.87, 7579.00,  6687.42, 7579.00" style="fill:#000000;fill-opacity:1.00"/>
<polygon points="7182.78, 7436.00  7196.24, 7436.00, 7196.24, 7571.23,  7182.78, 7579.00" style="fill:#000000;fill-opacity:1.00"/>
<polygon points="7678.14, 7579.00  7664.68, 7579.00, 7664.68, 7436.00,  7678.14, 7436.00" style="fill:#000000;fill-opacity:1.00"/>
<polygon points="2972.18, 7436.00  3026.02, 7467.08, 3026.02, 7579.00,  2972.18, 7579.00" style="fill:#095462;fill-opacity:1.00"/>
<polygon points="3096.03, 7507.50  3069.11, 7554.12, 2945.27, 7482.62,  2972.18, 7436.00" style="fill:#095462;fill-opacity:1.00"/>
<polygon points="3219.87, 7579.00  3192.95, 7625.62, 3069.11, 7554.12,  3096.03, 7507.50" style="fill:#095462;fill-opacity:1.00"/>
<polygon points="4458.28, 7436.00  4471.74, 7436.00, 4471.74, 7579.00,  4458.28, 7579.00" style="fill:#000000;fill-opacity:1.00"/>
<polygon points="4829.80, 7507.50  4836.53, 7519.16, 4719.42, 7586.77,  4705.96, 7579.00" style="fill:#000000;fill-opacity:1.00"/>
<polygon points="4953.64, 7436.00  4953.64, 7451.54, 4836.53, 7519.16,  4829.80, 7507.50" style="fill:#000000;fill-opacity:1.00"/>
<polygon points="5077.48, 7507.50  5070.75, 7519.16, 4953.64, 7451.54,  4953.64, 7436.00" style="fill:#000000;fill-opacity:1.00"/>
<polygon points="5201.32, 7579.00  5187.86, 7586.77, 5070.75, 7519.16,  5077.48, 7507.50" style="fill:#000000;fill-opacity:1.00"/>
<polygon points="5449.00, 7436.00  5462.46, 7436.00, 5462.46, 7579.00,  5449.00, 7579.00" style="fill:#000000;fill-opacity:1.00"/>
<polygon points="5820.53, 7507.50  5827.26, 7519.16, 5703.42, 7590.66,  5696.69, 7579.00" style="fill:#000000;fill-opacity:1.00"/>
<polygon points="5944.37, 7436.00  5944.37, 7451.54, 5827.26, 7519.16,  5820.53, 7507.50" style="fill:#000000;fill-opacity:1.00"/>
<polygon points="6068.21, 7507.50  6061.48, 7519.16, 5944.37, 7451.54,  5944.37, 7436.00" style="fill:#000000;fill-opacity:1.00"/>
<polygon points="6192.05, 7579.00  6178.59, 7586.77, 6061.48, 7519.16,  6068.21, 7507.50" style="fill:#000000;fill-opacity:1.00"/>
<polygon points="6439.73, 7436.00  6453.19, 7436.00, 6453.19, 7579.00,  6439.73, 7579.00" style="fill:#000000;fill-opacity:1.00"/>
<polygon points="6811.26, 7507.50  6817.98, 7519.16, 6694.14, 7590.66,  6687.41, 7579.00" style="fill:#000000;fill-opacity:1.00"/>
<polygon points="6935.10, 7436.00  6935.10, 7451.54, 6817.98, 7519.16,  6811.26, 7507.50" style="fill:#000000;fill-opacity:1.00"/>
<polygon points="7058.94, 7507.50  7052.21, 7519.16, 6935.10, 7451.54,  6935.10, 7436.00" style="fill:#000000;fill-opacity:1.00"/>
<polygon points="7182.78, 7579.00  7182.78, 7594.54, 7052.21, 7519.16,  7058.94, 7507.50" style="fill:#000000;fill-opacity:1.00"/>
<polygon points="7430.46, 7436.00  7443.92, 7436.00, 7443.92, 7579.00,  7430.46, 7579.00" style="fill:#000000;fill-opacity:1.00"/>
<polygon points="8792.71, 7507.50  8819.63, 7554.12, 8695.79, 7625.62,  8668.87, 7579.00" style="fill:#095462;fill-opacity:1.00"/>
<polygon points="8916.55, 7436.00  8943.47, 7482.62, 8819.63, 7554.12,  8792.71, 7507.50" style="fill:#095462;fill-opacity:1.00"/>
<polygon points="8916.55, 7579.00  8862.72, 7579.00, 8862.72, 7467.08,  8916.55, 7436.00" style="fill:#095462;fill-opacity:1.00"/>
<polygon points="2972.18, 7579.00  3026.02, 7579.00, 3026.02, 7722.00,  2972.18, 7722.00" style="fill:#095462;fill-opacity:1.00"/>
<polygon points="4458.28, 7579.00  4471.74, 7579.00, 4471.74, 7722.00,  4458.28, 7722.00" style="fill:#000000;fill-opacity:1.00"/>
<polygon points="5201.32, 7579.00  5208.05, 7567.34, 5331.89, 7638.84,  5325.16, 7650.50" style="fill:#000000;fill-opacity:1.00"/>
<polygon points="5325.16, 7650.50  5331.89, 7638.84, 5449.00, 7706.46,  5449.00, 7722.00" style="fill:#000000;fill-opacity:1.00"/>
<polygon points="5449.00, 7579.00  5462.46, 7579.00, 5462.46, 7722.00,  5449.00, 7722.00" style="fill:#000000;fill-opacity:1.00"/>
<polygon points="5449.00, 7722.00  5449.00, 7706.46, 5566.12, 7638.84,  5572.85, 7650.50" style="fill:#000000;fill-opacity:1.00"/>
<polygon points="5572.85, 7650.50  5566.12, 7638.84, 5689.96, 7567.34,  5696.69, 7579.00" style="fill:#000000;fill-opacity:1.00"/>
<polygon points="6439.73, 7579.00  6453.19, 7579.00, 6453.19, 7722.00,  6439.73, 7722.00" style="fill:#000000;fill-opacity:1.00"/>
<polygon points="6935.10, 7722.00  6921.64, 7714.23, 7052.21, 7638.84,  7058.94, 7650.50" style="fill:#000000;fill-opacity:1.00"/>
<polygon points="7058.94, 7650.50  7052.21, 7638.84, 7176.05, 7567.34,  7182.78, 7579.00" style="fill:#000000;fill-opacity:1.00"/>
<polygon points="7182.78, 7579.00  7196.24, 7571.23, 7313.35, 7638.84,  7306.62, 7650.50" style="fill:#000000;fill-opacity:1.00"/>
<polygon points="7306.62, 7650.50  7313.35, 7638.84, 7430.46, 7706.46,  7430.46, 7722.00" style="fill:#000000;fill-opacity:1.00"/>
<polygon points="7430.46, 7579.00  7443.92, 7579.00, 7443.92, 7722.00,  7430.46, 7722.00" style="fill:#000000;fill-opacity:1.00"/>
<polygon points="7430.46, 7722.00  7430.46, 7706.46, 7547.57, 7638.84,  7554.30, 7650.50" style="fill:#000000;fill-opacity:1.00"/>
<polygon points="7554.30, 7650.50  7547.57, 7638.84, 7671.41, 7567.34,  7678.14, 7579.00" style="fill:#000000;fill-opacity:1.00"/>
<polygon points="8916.55, 7722.00  8862.72, 7722.00, 8862.72, 7579.00,  8916.55, 7579.00" style="fill:#095462;fill-opacity:1.00"/>
<polygon points="3343.71, 7650.50  3316.79, 7697.12, 3192.95, 7625.62,  3219.87, 7579.00" style="fill:#095462;fill-opacity:1.00"/>
<polygon points="3467.55, 7722.00  3440.63, 7768.62, 3316.79, 7697.12,  3343.71, 7650.50" style="fill:#095462;fill-opacity:1.00"/>
<polygon points="4334.44, 7650.50  4327.71, 7662.16, 4210.59, 7594.54,  4210.59, 7579.00" style="fill:#000000;fill-opacity:1.00"/>
<polygon points="4458.28, 7722.00  4458.28, 7737.54, 4327.71, 7662.16,  4334.44, 7650.50" style="fill:#000000;fill-opacity:1.00"/>
<polygon points="4582.12, 7650.50  4588.85, 7662.16, 4458.28, 7737.54,  4458.28, 7722.00" style="fill:#000000;fill-opacity:1.00"/>
<polygon points="4705.96, 7579.00  4712.69, 7590.66, 4588.85, 7662.16,  4582.12, 7650.50" style="fill:#000000;fill-opacity:1.00"/>
<polygon points="4705.96, 7579.00  4719.42, 7579.00, 4719.42, 7722.00,  4705.96, 7722.00" style="fill:#000000;fill-opacity:1.00"/>
<polygon points="4829.80, 7650.50  4823.07, 7662.16, 4692.50, 7586.77,  4705.96, 7579.00" style="fill:#000000;fill-opacity:1.00"/>
<polygon points="4953.64, 7722.00  4953.64, 7737.54, 4823.07, 7662.16,  4829.80, 7650.50" style="fill:#000000;fill-opacity:1.00"/>
<polygon points="5077.48, 7650.50  5084.21, 7662.16, 4953.64, 7737.54,  4953.64, 7722.00" style="fill:#000000;fill-opacity:1.00"/>
<polygon points="5201.32, 7579.00  5214.78, 7586.77, 5084.21, 7662.16,  5077.48, 7650.50" style="fill:#000000;fill-opacity:1.00"/>
<polygon points="5201.32, 7722.00  5187.86, 7722.00, 5187.86, 7586.77,  5201.32, 7579.00" style="fill:#000000;fill-opacity:1.00"/>
<polygon points="5696.69, 7579.00  5710.15, 7579.00, 5710.15, 7722.00,  5696.69, 7722.00" style="fill:#000000;fill-opacity:1.00"/>
<polygon points="5820.53, 7650.50  5813.80, 7662.16, 5689.96, 7590.66,  5696.69, 7579.00" style="fill:#000000;fill-opacity:1.00"/>
<polygon points="5944.37, 7722.00  5944.37, 7737.54, 5813.80, 7662.16,  5820.53, 7650.50" style="fill:#000000;fill-opacity:1.00"/>
<polygon points="6068.21, 7650.50  6074.94, 7662.16, 5944.37, 7737.54,  5944.37, 7722.00" style="fill:#000000;fill-opacity:1.00"/>
<polygon points="6192.05, 7579.00  6198.78, 7590.66, 6074.94, 7662.16,  6068.21, 7650.50" style="fill:#000000;fill-opacity:1.00"/>
<polygon points="6192.05, 7722.00  6178.59, 7722.00, 6178.59, 7586.77,  6192.05, 7579.00" style="fill:#000000;fill-opacity:1.00"/>
<polygon points="6315.89, 7650.50  6309.16, 7662.16, 6192.05, 7594.54,  6192.05, 7579.00" style="fill:#000000;fill-opacity:1.00"/>
<polygon points="6439.73, 7722.00  6439.73, 7737.54, 6309.16, 7662.16,  6315.89, 7650.50" style="fill:#000000;fill-opacity:1.00"/>
<polygon points="6563.57, 7650.50  6570.30, 7662.16, 6439.73, 7737.54,  6439.73, 7722.00" style="fill:#000000;fill-opacity:1.00"/>
<polygon points="6687.41, 7579.00  6694.14, 7590.66, 6570.30, 7662.16,  6563.57, 7650.50" style="fill:#000000;fill-opacity:1.00"/>
<polygon points="6687.41, 7579.00  6700.87, 7579.00, 6700.87, 7722.00,  6687.41, 7722.00" style="fill:#000000;fill-opacity:1.00"/>
<polygon points="6811.26, 7650.50  6804.53, 7662.16, 6680.69, 7590.66,  6687.41, 7579.00" style="fill:#000000;fill-opacity:1.00"/>
<polygon points="6935.10, 7722.00  6921.64, 7729.77, 6804.53, 7662.16,  6811.26, 7650.50" style="fill:#000000;fill-opacity:1.00"/>
<polygon points="7182.78, 7579.00  7196.24, 7586.77, 7196.24, 7722.00,  7182.78, 7722.00" style="fill:#000000;fill-opacity:1.00"/>
<polygon points="8545.03, 7650.50  8571.95, 7697.12, 8448.11, 7768.62,  8421.19, 7722.00" style="fill:#095462;fill-opacity:1.00"/>
<polygon points="8668.87, 7579.00  8695.79, 7625.62, 8571.95, 7697.12,  8545.03, 7650.50" style="fill:#095462;fill-opacity:1.00"/>
<polygon points="4705.96, 7722.00  4719.42, 7722.00, 4719.42, 7857.23,  4705.96, 7865.00" style="fill:#000000;fill-opacity:1.00"/>
<polygon points="5201.32, 7865.00  5187.86, 7857.23, 5187.86, 7722.00,  5201.32, 7722.00" style="fill:#000000;fill-opacity:1.00"/>
<polygon points="5696.69, 7722.00  5710.15, 7722.00, 5710.15, 7857.23,  5696.69, 7865.00" style="fill:#000000;fill-opacity:1.00"/>
<polygon points="6192.05, 7865.00  6178.59, 7865.00, 6178.59, 7722.00,  6192.05, 7722.00" style="fill:#000000;fill-opacity:1.00"/>
<polygon points="6687.42, 7722.00  6700.87, 7722.00, 6700.87, 7857.23,  6687.42, 7865.00" style="fill:#000000;fill-opacity:1.00"/>
<polygon points="7182.78, 7722.00  7196.24, 7722.00, 7196.24, 7865.00,  7182.78, 7865.00" style="fill:#000000;fill-opacity:1.00"/>
<polygon points="2972.18, 7722.00  3026.02, 7722.00, 3026.02, 7865.00,  2972.18, 7865.00" style="fill:#095462;fill-opacity:1.00"/>
<polygon points="3591.39, 7793.50  3564.47, 7840.12, 3440.63, 7768.62,  3467.55, 7722.00" style="fill:#095462;fill-opacity:1.00"/>
<polygon points="3715.23, 7865.00  3688.31, 7911.62, 3564.47, 7840.12,  3591.39, 7793.50" style="fill:#095462;fill-opacity:1.00"/>
<polygon points="4953.64, 7722.00  4967.10, 7722.00, 4967.10, 7865.00,  4953.64, 7865.00" style="fill:#000000;fill-opacity:1.00"/>
<polygon points="5325.16, 7793.50  5331.89, 7805.16, 5208.05, 7876.66,  5201.32, 7865.00" style="fill:#000000;fill-opacity:1.00"/>
<polygon points="5449.00, 7722.00  5449.00, 7737.54, 5331.89, 7805.16,  5325.16, 7793.50" style="fill:#000000;fill-opacity:1.00"/>
<polygon points="5572.85, 7793.50  5566.12, 7805.16, 5449.00, 7737.54,  5449.00, 7722.00" style="fill:#000000;fill-opacity:1.00"/>
<polygon points="5696.69, 7865.00  5683.23, 7872.77, 5566.12, 7805.16,  5572.85, 7793.50" style="fill:#000000;fill-opacity:1.00"/>
<polygon points="5944.37, 7722.00  5957.83, 7722.00, 5957.83, 7865.00,  5944.37, 7865.00" style="fill:#000000;fill-opacity:1.00"/>
<polygon points="6315.89, 7793.50  6322.62, 7805.16, 6198.78, 7876.66,  6192.05, 7865.00" style="fill:#000000;fill-opacity:1.00"/>
<polygon points="6439.73, 7722.00  6439.73, 7737.54, 6322.62, 7805.16,  6315.89, 7793.50" style="fill:#000000;fill-opacity:1.00"/>
<polygon points="6563.57, 7793.50  6556.84, 7805.16, 6439.73, 7737.54,  6439.73, 7722.00" style="fill:#000000;fill-opacity:1.00"/>
<polygon points="6687.42, 7865.00  6673.96, 7872.77, 6556.84, 7805.16,  6563.57, 7793.50" style="fill:#000000;fill-opacity:1.00"/>
<polygon points="6935.10, 7865.00  6921.64, 7865.00, 6921.64, 7722.00,  6935.10, 7722.00" style="fill:#000000;fill-opacity:1.00"/>
<polygon points="8297.35, 7793.50  8324.27, 7840.12, 8200.42, 7911.62,  8173.51, 7865.00" style="fill:#095462;fill-opacity:1.00"/>
<polygon points="8421.19, 7722.00  8448.11, 7768.62, 8324.27, 7840.12,  8297.35, 7793.50" style="fill:#095462;fill-opacity:1.00"/>
<polygon points="8916.55, 7865.00  8862.72, 7865.00, 8862.72, 7722.00,  8916.55, 7722.00" style="fill:#095462;fill-opacity:1.00"/>
<polygon points="2972.18, 7865.00  3026.02, 7865.00, 3026.02, 8008.00,  2972.18, 8008.00" style="fill:#095462;fill-opacity:1.00"/>
<polygon points="4705.96, 7865.00  4719.42, 7857.23, 4836.53, 7924.84,  4829.80, 7936.50" style="fill:#000000;fill-opacity:1.00"/>
<polygon points="4829.80, 7936.50  4836.53, 7924.84, 4960.37, 7996.34,  4953.64, 8008.00" style="fill:#000000;fill-opacity:1.00"/>
<polygon points="4953.64, 7865.00  4967.10, 7865.00, 4967.10, 8008.00,  4953.64, 8008.00" style="fill:#000000;fill-opacity:1.00"/>
<polygon points="4953.64, 8008.00  4946.91, 7996.34, 5070.75, 7924.84,  5077.48, 7936.50" style="fill:#000000;fill-opacity:1.00"/>
<polygon points="5077.48, 7936.50  5070.75, 7924.84, 5187.86, 7857.23,  5201.32, 7865.00" style="fill:#000000;fill-opacity:1.00"/>
<polygon points="5696.69, 7865.00  5710.15, 7857.23, 5827.26, 7924.84,  5820.53, 7936.50" style="fill:#000000;fill-opacity:1.00"/>
<polygon points="5820.53, 7936.50  5827.26, 7924.84, 5944.37, 7992.46,  5944.37, 8008.00" style="fill:#000000;fill-opacity:1.00"/>
<polygon points="5944.37, 7865.00  5957.83, 7865.00, 5957.83, 8008.00,  5944.37, 8008.00" style="fill:#000000;fill-opacity:1.00"/>
<polygon points="5944.37, 8008.00  5944.37, 7992.46, 6061.48, 7924.84,  6068.21, 7936.50" style="fill:#000000;fill-opacity:1.00"/>
<polygon points="6068.21, 7936.50  6061.48, 7924.84, 6185.32, 7853.34,  6192.05, 7865.00" style="fill:#000000;fill-opacity:1.00"/>
<polygon points="6687.41, 7865.00  6700.87, 7857.23, 6817.98, 7924.84,  6811.26, 7936.50" style="fill:#000000;fill-opacity:1.00"/>
<polygon points="6811.26, 7936.50  6817.99, 7924.84, 6935.10, 7992.46,  6935.10, 8008.00" style="fill:#000000;fill-opacity:1.00"/>
<polygon points="6935.10, 8008.00  6921.64, 8008.00, 6921.64, 7865.00,  6935.10, 7865.00" style="fill:#000000;fill-opacity:1.00"/>
<polygon points="6935.10, 8008.00  6935.10, 7992.46, 7052.21, 7924.84,  7058.94, 7936.50" style="fill:#000000;fill-opacity:1.00"/>
<polygon points="7058.94, 7936.50  7052.21, 7924.84, 7176.05, 7853.34,  7182.78, 7865.00" style="fill:#000000;fill-opacity:1.00"/>
<polygon points="8916.55, 8008.00  8862.72, 8008.00, 8862.72, 7865.00,  8916.55, 7865.00" style="fill:#095462;fill-opacity:1.00"/>
<polygon points="3839.07, 7936.50  3812.15, 7983.12, 3688.31, 7911.62,  3715.23, 7865.00" style="fill:#095462;fill-opacity:1.00"/>
<polygon points="3962.91, 8008.00  3935.99, 8054.62, 3812.15, 7983.12,  3839.07, 7936.50" style="fill:#095462;fill-opacity:1.00"/>
<polygon points="5201.32, 7865.00  5214.78, 7865.00, 5214.78, 8008.00,  5201.32, 8008.00" style="fill:#000000;fill-opacity:1.00"/>
<polygon points="5325.16, 7936.50  5318.43, 7948.16, 5194.59, 7876.66,  5201.32, 7865.00" style="fill:#000000;fill-opacity:1.00"/>
<polygon points="5449.00, 8008.00  5449.00, 8023.54, 5318.43, 7948.16,  5325.16, 7936.50" style="fill:#000000;fill-opacity:1.00"/>
<polygon points="5572.85, 7936.50  5579.58, 7948.16, 5449.00, 8023.54,  5449.00, 8008.00" style="fill:#000000;fill-opacity:1.00"/>
<polygon points="5696.69, 7865.00  5703.42, 7876.66, 5579.58, 7948.16,  5572.85, 7936.50" style="fill:#000000;fill-opacity:1.00"/>
<polygon points="5696.69, 8008.00  5683.23, 8008.00, 5683.23, 7872.77,  5696.69, 7865.00" style="fill:#000000;fill-opacity:1.00"/>
<polygon points="6192.05, 7865.00  6205.51, 7865.00, 6205.51, 8008.00,  6192.05, 8008.00" style="fill:#000000;fill-opacity:1.00"/>
<polygon points="6315.89, 7936.50  6309.16, 7948.16, 6185.32, 7876.66,  6192.05, 7865.00" style="fill:#000000;fill-opacity:1.00"/>
<polygon points="6439.73, 8008.00  6439.73, 8023.54, 6309.16, 7948.16,  6315.89, 7936.50" style="fill:#000000;fill-opacity:1.00"/>
<polygon points="6563.57, 7936.50  6570.30, 7948.16, 6439.73, 8023.54,  6439.73, 8008.00" style="fill:#000000;fill-opacity:1.00"/>
<polygon points="6687.41, 7865.00  6694.14, 7876.66, 6570.30, 7948.16,  6563.57, 7936.50" style="fill:#000000;fill-opacity:1.00"/>
<polygon points="6687.41, 8008.00  6673.96, 8008.00, 6673.96, 7872.77,  6687.41, 7865.00" style="fill:#000000;fill-opacity:1.00"/>
<polygon points="8049.67, 7936.50  8076.58, 7983.12, 7952.74, 8054.62,  7925.83, 8008.00" style="fill:#095462;fill-opacity:1.00"/>
<polygon points="8173.51, 7865.00  8200.42, 7911.62, 8076.58, 7983.12,  8049.67, 7936.50" style="fill:#095462;fill-opacity:1.00"/>
<polygon points="5201.32, 8008.00  5214.78, 8008.00, 5214.78, 8143.23,  5201.32, 8151.00" style="fill:#000000;fill-opacity:1.00"/>
<polygon points="5696.69, 8151.00  5683.23, 8151.00, 5683.23, 8008.00,  5696.69, 8008.00" style="fill:#000000;fill-opacity:1.00"/>
<polygon points="5696.69, 8151.00  5689.96, 8139.34, 5813.80, 8067.84,  5820.53, 8079.50" style="fill:#000000;fill-opacity:1.00"/>
<polygon points="5820.53, 8079.50  5813.80, 8067.84, 5937.64, 7996.34,  5944.37, 8008.00" style="fill:#000000;fill-opacity:1.00"/>
<polygon points="5944.37, 8008.00  5951.10, 7996.34, 6074.94, 8067.84,  6068.21, 8079.50" style="fill:#000000;fill-opacity:1.00"/>
<polygon points="6068.21, 8079.50  6074.94, 8067.84, 6205.51, 8143.23,  6192.05, 8151.00" style="fill:#000000;fill-opacity:1.00"/>
<polygon points="6192.05, 8008.00  6205.51, 8008.00, 6205.51, 8143.23,  6192.05, 8151.00" style="fill:#000000;fill-opacity:1.00"/>
<polygon points="6687.41, 8151.00  6673.96, 8151.00, 6673.96, 8008.00,  6687.41, 8008.00" style="fill:#000000;fill-opacity:1.00"/>
<polygon points="2972.18, 8008.00  3026.02, 8008.00, 3026.02, 8151.00,  2972.18, 8151.00" style="fill:#095462;fill-opacity:1.00"/>
<polygon points="4086.75, 8079.50  4059.84, 8126.12, 3935.99, 8054.62,  3962.91, 8008.00" style="fill:#095462;fill-opacity:1.00"/>
<polygon points="4210.59, 8151.00  4183.68, 8197.62, 4059.84, 8126.12,  4086.75, 8079.50" style="fill:#095462;fill-opacity:1.00"/>
<polygon points="5449.00, 8008.00  5462.46, 8008.00, 5462.46, 8151.00,  5449.00, 8151.00" style="fill:#000000;fill-opacity:1.00"/>
<polygon points="6439.73, 8151.00  6426.27, 8151.00, 6426.27, 8008.00,  6439.73, 8008.00" style="fill:#000000;fill-opacity:1.00"/>
<polygon points="7801.98, 8079.50  7828.90, 8126.12, 7705.06, 8197.62,  7678.14, 8151.00" style="fill:#095462;fill-opacity:1.00"/>
<polygon points="7925.82, 8008.00  7952.74, 8054.62, 7828.90, 8126.12,  7801.98, 8079.50" style="fill:#095462;fill-opacity:1.00"/>
<polygon points="8916.55, 8151.00  8862.72, 8151.00, 8862.72, 8008.00,  8916.55, 8008.00" style="fill:#095462;fill-opacity:1.00"/>
<polygon points="2972.18, 8151.00  3026.02, 8151.00, 3026.02, 8294.00,  2972.18, 8294.00" style="fill:#095462;fill-opacity:1.00"/>
<polygon points="5201.32, 8151.00  5214.78, 8143.23, 5331.89, 8210.84,  5325.16, 8222.50" style="fill:#000000;fill-opacity:1.00"/>
<polygon points="5325.16, 8222.50  5331.89, 8210.84, 5449.00, 8278.46,  5449.00, 8294.00" style="fill:#000000;fill-opacity:1.00"/>
<polygon points="5449.00, 8151.00  5462.46, 8151.00, 5462.46, 8294.00,  5449.00, 8294.00" style="fill:#000000;fill-opacity:1.00"/>
<polygon points="5449.00, 8294.00  5449.00, 8278.46, 5566.12, 8210.84,  5572.85, 8222.50" style="fill:#000000;fill-opacity:1.00"/>
<polygon points="5572.85, 8222.50  5566.12, 8210.84, 5689.96, 8139.34,  5696.69, 8151.00" style="fill:#000000;fill-opacity:1.00"/>
<polygon points="6192.05, 8151.00  6205.51, 8143.23, 6322.62, 8210.84,  6315.89, 8222.50" style="fill:#000000;fill-opacity:1.00"/>
<polygon points="6315.89, 8222.50  6322.62, 8210.84, 6439.73, 8278.46,  6439.73, 8294.00" style="fill:#000000;fill-opacity:1.00"/>
<polygon points="6439.73, 8294.00  6426.27, 8294.00, 6426.27, 8151.00,  6439.73, 8151.00" style="fill:#000000;fill-opacity:1.00"/>
<polygon points="6439.73, 8294.00  6439.73, 8278.46, 6556.84, 8210.84,  6563.57, 8222.50" style="fill:#000000;fill-opacity:1.00"/>
<polygon points="6563.57, 8222.50  6556.84, 8210.84, 6680.69, 8139.34,  6687.42, 8151.00" style="fill:#000000;fill-opacity:1.00"/>
<polygon points="8916.55, 8294.00  8862.72, 8294.00, 8862.72, 8151.00,  8916.55, 8151.00" style="fill:#095462;fill-opacity:1.00"/>
<polygon points="4334.44, 8222.50  4307.52, 8269.12, 4183.68, 8197.62,  4210.59, 8151.00" style="fill:#095462;fill-opacity:1.00"/>
<polygon points="4458.28, 8294.00  4431.36, 8340.62, 4307.52, 8269.12,  4334.44, 8222.50" style="fill:#095462;fill-opacity:1.00"/>
<polygon points="5696.69, 8151.00  5710.15, 8151.00, 5710.15, 8294.00,  5696.69, 8294.00" style="fill:#000000;fill-opacity:1.00"/>
<polygon points="5820.53, 8222.50  5813.80, 8234.16, 5689.96, 8162.66,  5696.69, 8151.00" style="fill:#000000;fill-opacity:1.00"/>
<polygon points="5944.37, 8294.00  5944.37, 8309.54, 5813.80, 8234.16,  5820.53, 8222.50" style="fill:#000000;fill-opacity:1.00"/>
<polygon points="6068.21, 8222.50  6074.94, 8234.16, 5944.37, 8309.54,  5944.37, 8294.00" style="fill:#000000;fill-opacity:1.00"/>
<polygon points="6192.05, 8151.00  6198.78, 8162.66, 6074.94, 8234.16,  6068.21, 8222.50" style="fill:#000000;fill-opacity:1.00"/>
<polygon points="6192.05, 8151.00  6205.51, 8143.23, 6205.51, 8294.00,  6192.05, 8294.00" style="fill:#000000;fill-opacity:1.00"/>
<polygon points="7554.30, 8222.50  7581.22, 8269.12, 7457.38, 8340.62,  7430.46, 8294.00" style="fill:#095462;fill-opacity:1.00"/>
<polygon points="7678.14, 8151.00  7705.06, 8197.62, 7581.22, 8269.12,  7554.30, 8222.50" style="fill:#095462;fill-opacity:1.00"/>
<polygon points="5696.69, 8294.00  5710.15, 8294.00, 5710.15, 8444.77,  5696.69, 8437.00" style="fill:#000000;fill-opacity:1.00"/>
<polygon points="6192.05, 8294.00  6205.51, 8294.00, 6205.51, 8437.00,  6192.05, 8437.00" style="fill:#000000;fill-opacity:1.00"/>
<polygon points="2972.18, 8294.00  3026.02, 8294.00, 3026.02, 8437.00,  2972.18, 8437.00" style="fill:#095462;fill-opacity:1.00"/>
<polygon points="4582.12, 8365.50  4555.20, 8412.12, 4431.36, 8340.62,  4458.28, 8294.00" style="fill:#095462;fill-opacity:1.00"/>
<polygon points="4705.96, 8437.00  4679.04, 8483.62, 4555.20, 8412.12,  4582.12, 8365.50" style="fill:#095462;fill-opacity:1.00"/>
<polygon points="5944.37, 8294.00  5957.83, 8294.00, 5957.83, 8437.00,  5944.37, 8437.00" style="fill:#000000;fill-opacity:1.00"/>
<polygon points="7306.62, 8365.50  7333.54, 8412.12, 7209.70, 8483.62,  7182.78, 8437.00" style="fill:#095462;fill-opacity:1.00"/>
<polygon points="7430.46, 8294.00  7457.38, 8340.62, 7333.54, 8412.12,  7306.62, 8365.50" style="fill:#095462;fill-opacity:1.00"/>
<polygon points="8916.55, 8437.00  8862.72, 8437.00, 8862.72, 8294.00,  8916.55, 8294.00" style="fill:#095462;fill-opacity:1.00"/>
<polygon points="2972.18, 8437.00  3026.02, 8437.00, 3026.02, 8580.00,  2972.18, 8580.00" style="fill:#095462;fill-opacity:1.00"/>
<polygon points="5944.37, 8437.00  5957.83, 8437.00, 5957.83, 8580.00,  5944.37, 8580.00" style="fill:#000000;fill-opacity:1.00"/>
<polygon points="8916.55, 8580.00  8862.72, 8580.00, 8862.72, 8437.00,  8916.55, 8437.00" style="fill:#095462;fill-opacity:1.00"/>
<polygon points="4829.80, 8508.50  4802.88, 8555.12, 4679.04, 8483.62,  4705.96, 8437.00" style="fill:#095462;fill-opacity:1.00"/>
<polygon points="4953.64, 8580.00  4926.72, 8626.62, 4802.88, 8555.12,  4829.80, 8508.50" style="fill:#095462;fill-opacity:1.00"/>
<polygon points="5820.53, 8508.50  5813.80, 8520.16, 5696.69, 8452.54,  5696.69, 8437.00" style="fill:#000000;fill-opacity:1.00"/>
<polygon points="5944.37, 8580.00  5944.37, 8595.54, 5813.80, 8520.16,  5820.53, 8508.50" style="fill:#000000;fill-opacity:1.00"/>
<polygon points="6068.21, 8508.50  6074.94, 8520.16, 5944.37, 8595.54,  5944.37, 8580.00" style="fill:#000000;fill-opacity:1.00"/>
<polygon points="6192.05, 8437.00  6198.78, 8448.66, 6074.94, 8520.16,  6068.21, 8508.50" style="fill:#000000;fill-opacity:1.00"/>
<polygon points="7058.94, 8508.50  7085.86, 8555.12, 6962.01, 8626.62,  6935.10, 8580.00" style="fill:#095462;fill-opacity:1.00"/>
<polygon points="7182.78, 8437.00  7209.70, 8483.62, 7085.86, 8555.12,  7058.94, 8508.50" style="fill:#095462;fill-opacity:1.00"/>
<polygon points="2972.18, 8580.00  3026.02, 8548.92, 3122.94, 8604.88,  3096.03, 8651.50" style="fill:#095462;fill-opacity:1.00"/>
<polygon points="3096.03, 8651.50  3122.94, 8604.88, 3246.78, 8676.38,  3219.87, 8723.00" style="fill:#095462;fill-opacity:1.00"/>
<polygon points="8668.87, 8723.00  8641.95, 8676.38, 8765.79, 8604.88,  8792.71, 8651.50" style="fill:#095462;fill-opacity:1.00"/>
<polygon points="8792.71, 8651.50  8765.79, 8604.88, 8889.64, 8533.38,  8916.55, 8580.00" style="fill:#095462;fill-opacity:1.00"/>
<polygon points="5077.48, 8651.50  5050.56, 8698.12, 4926.72, 8626.62,  4953.64, 8580.00" style="fill:#095462;fill-opacity:1.00"/>
<polygon points="5201.32, 8723.00  5174.40, 8769.62, 5050.56, 8698.12,  5077.48, 8651.50" style="fill:#095462;fill-opacity:1.00"/>
<polygon points="6811.26, 8651.50  6838.17, 8698.12, 6714.33, 8769.62,  6687.41, 8723.00" style="fill:#095462;fill-opacity:1.00"/>
<polygon points="6935.10, 8580.00  6962.01, 8626.62, 6838.17, 8698.12,  6811.26, 8651.50" style="fill:#095462;fill-opacity:1.00"/>
<polygon points="3219.87, 8723.00  3246.78, 8676.38, 3370.63, 8747.88,  3343.71, 8794.50" style="fill:#095462;fill-opacity:1.00"/>
<polygon points="3343.71, 8794.50  3370.62, 8747.88, 3494.47, 8819.38,  3467.55, 8866.00" style="fill:#095462;fill-opacity:1.00"/>
<polygon points="8421.19, 8866.00  8394.27, 8819.38, 8518.11, 8747.88,  8545.03, 8794.50" style="fill:#095462;fill-opacity:1.00"/>
<polygon points="8545.03, 8794.50  8518.11, 8747.88, 8641.95, 8676.38,  8668.87, 8723.00" style="fill:#095462;fill-opacity:1.00"/>
<polygon points="5325.16, 8794.50  5298.25, 8841.12, 5174.40, 8769.62,  5201.32, 8723.00" style="fill:#095462;fill-opacity:1.00"/>
<polygon points="5449.00, 8866.00  5422.09, 8912.62, 5298.25, 8841.12,  5325.16, 8794.50" style="fill:#095462;fill-opacity:1.00"/>
<polygon points="6563.57, 8794.50  6590.49, 8841.12, 6466.65, 8912.62,  6439.73, 8866.00" style="fill:#095462;fill-opacity:1.00"/>
<polygon points="6687.41, 8723.00  6714.33, 8769.62, 6590.49, 8841.12,  6563.57, 8794.50" style="fill:#095462;fill-opacity:1.00"/>
<polygon points="3467.55, 8866.00  3494.47, 8819.38, 3618.31, 8890.88,  3591.39, 8937.50" style="fill:#095462;fill-opacity:1.00"/>
<polygon points="3591.39, 8937.50  3618.31, 8890.88, 3742.15, 8962.38,  3715.23, 9009.00" style="fill:#095462;fill-opacity:1.00"/>
<polygon points="8173.51, 9009.00  8146.59, 8962.38, 8270.43, 8890.88,  8297.35, 8937.50" style="fill:#095462;fill-opacity:1.00"/>
<polygon points="8297.35, 8937.50  8270.43, 8890.88, 8394.27, 8819.38,  8421.19, 8866.00" style="fill:#095462;fill-opacity:1.00"/>
<polygon points="5572.85, 8937.50  5545.93, 8984.12, 5422.09, 8912.62,  5449.00, 8866.00" style="fill:#095462;fill-opacity:1.00"/>
<polygon points="5696.69, 9009.00  5669.77, 9055.62, 5545.93, 8984.12,  5572.85, 8937.50" style="fill:#095462;fill-opacity:1.00"/>
<polygon points="6315.89, 8937.50  6342.81, 8984.12, 6218.97, 9055.62,  6192.05, 9009.00" style="fill:#095462;fill-opacity:1.00"/>
<polygon points="6439.73, 8866.00  6466.65, 8912.62, 6342.81, 8984.12,  6315.89, 8937.50" style="fill:#095462;fill-opacity:1.00"/>
<polygon points="3715.23, 9009.00  3742.15, 8962.38, 3865.99, 9033.88,  3839.07, 9080.50" style="fill:#095462;fill-opacity:1.00"/>
<polygon points="3839.07, 9080.50  3865.99, 9033.88, 3989.83, 9105.38,  3962.91, 9152.00" style="fill:#095462;fill-opacity:1.00"/>
<polygon points="7925.83, 9152.00  7898.91, 9105.38, 8022.75, 9033.88,  8049.67, 9080.50" style="fill:#095462;fill-opacity:1.00"/>
<polygon points="8049.67, 9080.50  8022.75, 9033.88, 8146.59, 8962.38,  8173.51, 9009.00" style="fill:#095462;fill-opacity:1.00"/>
<polygon points="5820.53, 9080.50  5793.61, 9127.12, 5669.77, 9055.62,  5696.69, 9009.00" style="fill:#095462;fill-opacity:1.00"/>
<polygon points="5944.37, 9152.00  5917.45, 9198.62, 5793.61, 9127.12,  5820.53, 9080.50" style="fill:#095462;fill-opacity:1.00"/>
<polygon points="6068.21, 9080.50  6095.13, 9127.12, 5971.29, 9198.62,  5944.37, 9152.00" style="fill:#095462;fill-opacity:1.00"/>
<polygon points="6192.05, 9009.00  6218.97, 9055.62, 6095.13, 9127.12,  6068.21, 9080.50" style="fill:#095462;fill-opacity:1.00"/>
<polygon points="3962.91, 9152.00  3989.83, 9105.38, 4113.67, 9176.88,  4086.75, 9223.50" style="fill:#095462;fill-opacity:1.00"/>
<polygon points="4086.75, 9223.50  4113.67, 9176.88, 4237.51, 9248.38,  4210.59, 9295.00" style="fill:#095462;fill-opacity:1.00"/>
<polygon points="7678.14, 9295.00  7651.22, 9248.38, 7775.07, 9176.88,  7801.98, 9223.50" style="fill:#095462;fill-opacity:1.00"/>
<polygon points="7801.98, 9223.50  7775.07, 9176.88, 7898.91, 9105.38,  7925.83, 9152.00" style="fill:#095462;fill-opacity:1.00"/>
<polygon points="5944.37, 9152.00  5998.20, 9152.00, 5998.20, 9295.00,  5944.37, 9295.00" style="fill:#095462;fill-opacity:1.00"/>
<polygon points="4210.59, 9295.00  4237.51, 9248.38, 4361.35, 9319.88,  4334.44, 9366.50" style="fill:#095462;fill-opacity:1.00"/>
<polygon points="4334.44, 9366.50  4361.35, 9319.88, 4485.19, 9391.38,  4458.28, 9438.00" style="fill:#095462;fill-opacity:1.00"/>
<polygon points="5944.37, 9295.00  5998.20, 9295.00, 5998.20, 9438.00,  5944.37, 9438.00" style="fill:#095462;fill-opacity:1.00"/>
<polygon points="7430.46, 9438.00  7403.54, 9391.38, 7527.38, 9319.88,  7554.30, 9366.50" style="fill:#095462;fill-opacity:1.00"/>
<polygon points="7554.30, 9366.50  7527.38, 9319.88, 7651.23, 9248.38,  7678.14, 9295.00" style="fill:#095462;fill-opacity:1.00"/>
<polygon points="4458.28, 9438.00  4485.19, 9391.38, 4609.04, 9462.88,  4582.12, 9509.50" style="fill:#095462;fill-opacity:1.00"/>
<polygon points="4582.12, 9509.50  4609.04, 9462.88, 4732.88, 9534.38,  4705.96, 9581.00" style="fill:#095462;fill-opacity:1.00"/>
<polygon points="7182.78, 9581.00  7155.86, 9534.38, 7279.70, 9462.88,  7306.62, 9509.50" style="fill:#095462;fill-opacity:1.00"/>
<polygon points="7306.62, 9509.50  7279.70, 9462.88, 7403.54, 9391.38,  7430.46, 9438.00" style="fill:#095462;fill-opacity:1.00"/>
<polygon points="5944.37, 9438.00  5998.20, 9438.00, 5998.20, 9581.00,  5944.37, 9581.00" style="fill:#095462;fill-opacity:1.00"/>
<polygon points="4705.96, 9581.00  4732.88, 9534.38, 4856.72, 9605.88,  4829.80, 9652.50" style="fill:#095462;fill-opacity:1.00"/>
<polygon points="4829.80, 9652.50  4856.72, 9605.88, 4980.56, 9677.38,  4953.64, 9724.00" style="fill:#095462;fill-opacity:1.00"/>
<polygon points="5944.37, 9581.00  5998.20, 9581.00, 5998.20, 9724.00,  5944.37, 9724.00" style="fill:#095462;fill-opacity:1.00"/>
<polygon points="6935.10, 9724.00  6908.18, 9677.38, 7032.02, 9605.88,  7058.94, 9652.50" style="fill:#095462;fill-opacity:1.00"/>
<polygon points="7058.94, 9652.50  7032.02, 9605.88, 7155.86, 9534.38,  7182.78, 9581.00" style="fill:#095462;fill-opacity:1.00"/>
<polygon points="4953.64, 9724.00  4980.56, 9677.38, 5104.40, 9748.88,  5077.48, 9795.50" style="fill:#095462;fill-opacity:1.00"/>
<polygon points="5077.48, 9795.50  5104.40, 9748.88, 5228.24, 9820.38,  5201.32, 9867.00" style="fill:#095462;fill-opacity:1.00"/>
<polygon points="6687.41, 9867.00  6660.50, 9820.38, 6784.34, 9748.88,  6811.26, 9795.50" style="fill:#095462;fill-opacity:1.00"/>
<polygon points="6811.26, 9795.50  6784.34, 9748.88, 6908.18, 9677.38,  6935.10, 9724.00" style="fill:#095462;fill-opacity:1.00"/>
<polygon points="5944.37, 9724.00  5998.20, 9724.00, 5998.20, 9867.00,  5944.37, 9867.00" style="fill:#095462;fill-opacity:1.00"/>
<polygon points="5201.32, 9867.00  5228.24, 9820.38, 5352.08, 9891.88,  5325.16, 9938.50" style="fill:#095462;fill-opacity:1.00"/>
<polygon points="5325.16, 9938.50  5352.08, 9891.88, 5475.92, 9963.38,  5449.00, 10010.00" style="fill:#095462;fill-opacity:1.00"/>
<polygon points="5944.37, 9867.00  5998.20, 9867.00, 5998.20, 10010.00,  5944.37, 10010.00" style="fill:#095462;fill-opacity:1.00"/>
<polygon points="6439.73, 10010.00  6412.81, 9963.38, 6536.66, 9891.88,  6563.57, 9938.50" style="fill:#095462;fill-opacity:1.00"/>
<polygon points="6563.57, 9938.50  6536.66, 9891.88, 6660.50, 9820.38,  6687.42, 9867.00" style="fill:#095462;fill-opacity:1.00"/>
<polygon points="5449.00, 10010.00  5475.92, 9963.38, 5599.76, 10034.88,  5572.85, 10081.50" style="fill:#095462;fill-opacity:1.00"/>
<polygon points="5572.85, 10081.50  5599.76, 10034.88, 5723.60, 10106.38,  5696.69, 10153.00" style="fill:#095462;fill-opacity:1.00"/>
<polygon points="6192.05, 10153.00  6165.13, 10106.38, 6288.97, 10034.88,  6315.89, 10081.50" style="fill:#095462;fill-opacity:1.00"/>
<polygon points="6315.89, 10081.50  6288.97, 10034.88, 6412.81, 9963.38,  6439.73, 10010.00" style="fill:#095462;fill-opacity:1.00"/>
<polygon points="5944.37, 10010.00  5998.20, 10010.00, 5998.20, 10153.00,  5944.37, 10153.00" style="fill:#095462;fill-opacity:1.00"/>
<polygon points="5696.69, 10153.00  5723.60, 10106.38, 5847.45, 10177.88,  5820.53, 10224.50" style="fill:#095462;fill-opacity:1.00"/>
<polygon points="5820.53, 10224.50  5847.45, 10177.88, 5971.29, 10249.38,  5944.37, 10296.00" style="fill:#095462;fill-opacity:1.00"/>
<polygon points="5944.37, 10153.00  5998.20, 10153.00, 5998.20, 10296.00,  5944.37, 10296.00" style="fill:#095462;fill-opacity:1.00"/>
<polygon points="5944.37, 10296.00  5917.45, 10249.38, 6041.29, 10177.88,  6068.21, 10224.50" style="fill:#095462;fill-opacity:1.00"/>
<polygon points="6068.21, 10224.50  6041.29, 10177.88, 6165.13, 10106.38,  6192.05, 10153.00" style="fill:#095462;fill-opacity:1.00"/>
</g>
</g>
</g></svg>
