<svg id="Hexels SVG Export" xmlns="http://www.w3.org/2000/svg" version="1.1" xmlns:xlink="http://www.w3.org/1999/xlink" viewBox="0 -0 4486 4736" xml:space="preserve">
<g id="Root" transform="matrix(1.000, 0.000, 0.000, 1.000, 0.000, 0.000)">
<g id="Layer 1" transform="matrix(1.000, 0.000, 0.000, 1.000, 0.000, 0.000)">
<g id="Hexels">
<path d="M 2050.74,-1.85 L -1.60,1183.08 L -1.60,3552.93 L 2050.74,4737.85 L 4103.08,3552.92 L 4103.08,1183.08 L 2050.74,-1.85  z
M 1921.96,371.75 L 2434.04,667.40 L 2433.66,814.94 L 2561.61,888.35 L 2561.60,1479.66 L 2433.64,1553.09 L 2433.64,1701.09 L 2305.47,1775.09 L 2306.03,1925.52 L 3587.46,2665.28 L 3587.51,3254.67 L 2050.74,4142.15 L 513.97,3254.67 L 514.05,2665.25 L 1667.77,1999.02 L 1154.75,1700.60 L 1155.14,1553.06 L 1027.18,1479.65 L 1027.19,888.35 L 1155.15,814.91 L 1154.75,667.40 L 1666.83,371.75 L 1794.40,445.85 L 1921.96,371.75  z
" style="fill:#ffffff;fill-opacity:1.00"/>
<path d="M 1665.62,368.25 L 1152.33,664.60 L 1151.93,813.09 L 1023.55,887.66 L 1023.55,1480.35 L 1151.94,1554.94 L 1152.33,1703.40 L 1665.62,1999.75 L 1794.41,1925.85 L 1922.58,1999.85 L 2050.75,1925.85 L 2177.31,1998.93 L 2177.31,2146.94 L 2305.48,2220.94 L 2305.48,2368.94 L 2433.66,2442.94 L 2433.66,2590.94 L 2561.83,2664.94 L 2561.83,2812.94 L 2691.60,2887.85 L 2821.37,2812.92 L 2821.36,2663.07 L 2693.19,2589.06 L 2693.19,2441.06 L 2565.02,2367.06 L 2565.02,2219.06 L 2436.85,2145.06 L 2436.85,1997.06 L 2308.68,1923.06 L 2308.69,1776.92 L 2436.86,1702.91 L 2436.86,1554.91 L 2565.24,1480.34 L 2565.24,887.65 L 2436.85,813.06 L 2436.46,664.60 L 1923.17,368.25 L 1794.40,442.15 L 1665.62,368.25  z
M 1282.99,741.33 L 1666.74,519.78 L 1794.41,593.85 L 1922.06,519.78 L 2305.80,741.34 L 2305.48,888.94 L 2433.46,962.45 L 2433.45,1405.56 L 2305.47,1479.09 L 2305.79,1626.67 L 1922.05,1848.22 L 1794.38,1774.15 L 1666.73,1848.22 L 1282.99,1626.66 L 1283.31,1479.06 L 1155.33,1405.55 L 1155.34,962.44 L 1283.31,888.92 L 1282.99,741.33  z
" style="fill:#97075b;fill-opacity:1.00"/>
<path d="M 1665.71,516.22 L 1280.42,738.67 L 1280.10,887.09 L 1151.74,961.56 L 1151.75,1406.45 L 1280.12,1480.94 L 1280.43,1629.34 L 1665.72,1851.78 L 1794.41,1777.85 L 1923.09,1851.78 L 2308.37,1629.33 L 2308.69,1480.91 L 2437.05,1406.44 L 2437.05,961.55 L 2308.68,887.06 L 2308.36,738.66 L 1923.07,516.22 L 1794.40,590.15 L 1665.71,516.22  z
M 1539.66,1036.92 L 1794.40,889.85 L 2049.14,1036.93 L 2049.13,1331.08 L 1794.39,1478.15 L 1539.66,1331.07 L 1539.66,1036.92  z
" style="fill:#ffffff;fill-opacity:1.00"/>
<path d="M 1794.40,886.15 L 1536.45,1035.08 L 1536.45,1332.93 L 1794.40,1481.85 L 2052.34,1332.92 L 2052.34,1035.08 L 1794.40,886.15  z
" style="fill:#0eab50;fill-opacity:1.00"/>
<path d="M 1793.61,1922.33 L 511.35,2662.72 L 511.40,3257.33 L 2050.74,4145.85 L 3590.07,3257.33 L 3590.15,2662.75 L 2436.01,1996.31 L 2433.64,2146.92 L 2561.83,2220.94 L 2561.83,2368.94 L 2690.00,2442.94 L 2690.00,2590.94 L 2818.17,2664.94 L 2818.16,2811.08 L 2691.59,2884.15 L 2565.02,2811.07 L 2565.02,2663.06 L 2436.85,2589.06 L 2436.85,2441.06 L 2308.68,2367.06 L 2308.68,2219.06 L 2180.50,2145.06 L 2180.50,1997.06 L 2050.73,1922.15 L 1922.57,1996.15 L 1793.61,1922.33  z
" style="fill:#11a6c1;fill-opacity:1.00"/>
</g>
<g id="Outlines">
<polygon points="1730.31, 925.00  1733.79, 931.03, 1669.71, 968.03,  1666.22, 962.00" style="fill:#000000;fill-opacity:1.00"/>
<polygon points="1794.40, 888.00  1794.40, 896.04, 1733.79, 931.03,  1730.31, 925.00" style="fill:#000000;fill-opacity:1.00"/>
<polygon points="1858.48, 925.00  1855.00, 931.03, 1794.40, 896.04,  1794.40, 888.00" style="fill:#000000;fill-opacity:1.00"/>
<polygon points="1922.57, 962.00  1919.08, 968.03, 1855.00, 931.03,  1858.48, 925.00" style="fill:#000000;fill-opacity:1.00"/>
<polygon points="1602.14, 999.00  1605.62, 1005.03, 1541.54, 1042.03,  1538.05, 1036.00" style="fill:#000000;fill-opacity:1.00"/>
<polygon points="1666.22, 962.00  1669.71, 968.03, 1605.62, 1005.03,  1602.14, 999.00" style="fill:#000000;fill-opacity:1.00"/>
<polygon points="1986.65, 999.00  1983.17, 1005.03, 1919.08, 968.03,  1922.57, 962.00" style="fill:#000000;fill-opacity:1.00"/>
<polygon points="2050.74, 1036.00  2043.77, 1040.02, 1983.17, 1005.03,  1986.65, 999.00" style="fill:#000000;fill-opacity:1.00"/>
<polygon points="1922.57, 1110.00  1919.08, 1103.97, 1983.17, 1066.97,  1986.65, 1073.00" style="fill:#000000;fill-opacity:1.00"/>
<polygon points="1986.65, 1073.00  1983.17, 1066.97, 2047.26, 1029.97,  2050.74, 1036.00" style="fill:#000000;fill-opacity:1.00"/>
<polygon points="1538.05, 1036.00  1545.02, 1036.00, 1545.02, 1110.00,  1538.05, 1110.00" style="fill:#000000;fill-opacity:1.00"/>
<polygon points="1602.14, 1073.00  1598.66, 1079.03, 1534.57, 1042.03,  1538.05, 1036.00" style="fill:#000000;fill-opacity:1.00"/>
<polygon points="1666.22, 1110.00  1662.74, 1116.03, 1598.66, 1079.03,  1602.14, 1073.00" style="fill:#000000;fill-opacity:1.00"/>
<polygon points="2050.74, 1110.00  2043.77, 1110.00, 2043.77, 1040.02,  2050.74, 1036.00" style="fill:#000000;fill-opacity:1.00"/>
<polygon points="1538.05, 1110.00  1545.02, 1110.00, 1545.02, 1184.00,  1538.05, 1184.00" style="fill:#000000;fill-opacity:1.00"/>
<polygon points="1794.40, 1184.00  1787.43, 1179.98, 1855.00, 1140.97,  1858.48, 1147.00" style="fill:#000000;fill-opacity:1.00"/>
<polygon points="1858.48, 1147.00  1855.00, 1140.97, 1919.08, 1103.97,  1922.57, 1110.00" style="fill:#000000;fill-opacity:1.00"/>
<polygon points="2050.74, 1184.00  2043.77, 1184.00, 2043.77, 1110.00,  2050.74, 1110.00" style="fill:#000000;fill-opacity:1.00"/>
<polygon points="1730.31, 1147.00  1726.83, 1153.03, 1662.74, 1116.03,  1666.22, 1110.00" style="fill:#000000;fill-opacity:1.00"/>
<polygon points="1794.40, 1184.00  1787.43, 1188.02, 1726.83, 1153.03,  1730.31, 1147.00" style="fill:#000000;fill-opacity:1.00"/>
<polygon points="1538.05, 1184.00  1545.02, 1184.00, 1545.02, 1258.00,  1538.05, 1258.00" style="fill:#000000;fill-opacity:1.00"/>
<polygon points="1794.40, 1184.00  1801.36, 1184.00, 1801.36, 1258.00,  1794.40, 1258.00" style="fill:#000000;fill-opacity:1.00"/>
<polygon points="2050.74, 1258.00  2043.77, 1258.00, 2043.77, 1184.00,  2050.74, 1184.00" style="fill:#000000;fill-opacity:1.00"/>
<polygon points="1538.05, 1258.00  1545.02, 1258.00, 1545.02, 1336.02,  1538.05, 1332.00" style="fill:#000000;fill-opacity:1.00"/>
<polygon points="1794.40, 1258.00  1801.36, 1258.00, 1801.36, 1332.00,  1794.40, 1332.00" style="fill:#000000;fill-opacity:1.00"/>
<polygon points="2050.74, 1332.00  2043.77, 1332.00, 2043.77, 1258.00,  2050.74, 1258.00" style="fill:#000000;fill-opacity:1.00"/>
<polygon points="1922.57, 1406.00  1919.08, 1399.97, 1983.17, 1362.97,  1986.65, 1369.00" style="fill:#000000;fill-opacity:1.00"/>
<polygon points="1986.65, 1369.00  1983.17, 1362.97, 2047.26, 1325.97,  2050.74, 1332.00" style="fill:#000000;fill-opacity:1.00"/>
<polygon points="1602.14, 1369.00  1598.66, 1375.03, 1538.05, 1340.04,  1538.05, 1332.00" style="fill:#000000;fill-opacity:1.00"/>
<polygon points="1666.22, 1406.00  1662.74, 1412.03, 1598.66, 1375.03,  1602.14, 1369.00" style="fill:#000000;fill-opacity:1.00"/>
<polygon points="1794.40, 1332.00  1801.36, 1332.00, 1801.36, 1406.00,  1794.40, 1406.00" style="fill:#000000;fill-opacity:1.00"/>
<polygon points="1794.40, 1406.00  1801.36, 1406.00, 1801.36, 1480.00,  1794.40, 1480.00" style="fill:#000000;fill-opacity:1.00"/>
<polygon points="1794.40, 1480.00  1787.43, 1475.98, 1855.00, 1436.97,  1858.48, 1443.00" style="fill:#000000;fill-opacity:1.00"/>
<polygon points="1858.48, 1443.00  1855.00, 1436.97, 1919.08, 1399.97,  1922.57, 1406.00" style="fill:#000000;fill-opacity:1.00"/>
<polygon points="1730.31, 1443.00  1726.83, 1449.03, 1662.74, 1412.03,  1666.22, 1406.00" style="fill:#000000;fill-opacity:1.00"/>
<polygon points="1794.40, 1480.00  1787.43, 1484.02, 1726.83, 1449.03,  1730.31, 1443.00" style="fill:#000000;fill-opacity:1.00"/>
<polygon points="1602.14, 2035.00  1616.07, 2059.13, 1551.98, 2096.13,  1538.05, 2072.00" style="fill:#095462;fill-opacity:1.00"/>
<polygon points="1666.22, 1998.00  1680.15, 2022.13, 1616.07, 2059.13,  1602.14, 2035.00" style="fill:#095462;fill-opacity:1.00"/>
<polygon points="2499.34, 2035.00  2485.41, 2059.13, 2421.32, 2022.13,  2435.25, 1998.00" style="fill:#095462;fill-opacity:1.00"/>
<polygon points="2563.42, 2072.00  2549.49, 2096.13, 2485.41, 2059.13,  2499.34, 2035.00" style="fill:#095462;fill-opacity:1.00"/>
<polygon points="1473.97, 2109.00  1487.90, 2133.13, 1423.81, 2170.13,  1409.88, 2146.00" style="fill:#095462;fill-opacity:1.00"/>
<polygon points="1538.05, 2072.00  1551.98, 2096.13, 1487.90, 2133.13,  1473.97, 2109.00" style="fill:#095462;fill-opacity:1.00"/>
<polygon points="2627.51, 2109.00  2613.58, 2133.13, 2549.49, 2096.13,  2563.42, 2072.00" style="fill:#095462;fill-opacity:1.00"/>
<polygon points="2691.59, 2146.00  2677.66, 2170.13, 2613.58, 2133.13,  2627.51, 2109.00" style="fill:#095462;fill-opacity:1.00"/>
<polygon points="1345.80, 2183.00  1359.73, 2207.13, 1295.64, 2244.13,  1281.71, 2220.00" style="fill:#095462;fill-opacity:1.00"/>
<polygon points="1409.88, 2146.00  1423.81, 2170.13, 1359.73, 2207.13,  1345.80, 2183.00" style="fill:#095462;fill-opacity:1.00"/>
<polygon points="2755.68, 2183.00  2741.75, 2207.13, 2677.66, 2170.13,  2691.59, 2146.00" style="fill:#095462;fill-opacity:1.00"/>
<polygon points="2819.76, 2220.00  2805.84, 2244.13, 2741.75, 2207.13,  2755.68, 2183.00" style="fill:#095462;fill-opacity:1.00"/>
<polygon points="1217.63, 2257.00  1231.56, 2281.13, 1167.47, 2318.13,  1153.54, 2294.00" style="fill:#095462;fill-opacity:1.00"/>
<polygon points="1281.71, 2220.00  1295.64, 2244.13, 1231.55, 2281.13,  1217.63, 2257.00" style="fill:#095462;fill-opacity:1.00"/>
<polygon points="2883.85, 2257.00  2869.92, 2281.13, 2805.84, 2244.13,  2819.76, 2220.00" style="fill:#095462;fill-opacity:1.00"/>
<polygon points="2947.94, 2294.00  2934.01, 2318.13, 2869.92, 2281.13,  2883.85, 2257.00" style="fill:#095462;fill-opacity:1.00"/>
<polygon points="1089.45, 2331.00  1103.38, 2355.13, 1039.30, 2392.13,  1025.37, 2368.00" style="fill:#095462;fill-opacity:1.00"/>
<polygon points="1153.54, 2294.00  1167.47, 2318.13, 1103.38, 2355.13,  1089.45, 2331.00" style="fill:#095462;fill-opacity:1.00"/>
<polygon points="3012.02, 2331.00  2998.09, 2355.13, 2934.01, 2318.13,  2947.94, 2294.00" style="fill:#095462;fill-opacity:1.00"/>
<polygon points="3076.11, 2368.00  3062.18, 2392.13, 2998.09, 2355.13,  3012.02, 2331.00" style="fill:#095462;fill-opacity:1.00"/>
<polygon points="961.28, 2405.00  975.21, 2429.13, 911.13, 2466.13,  897.20, 2442.00" style="fill:#095462;fill-opacity:1.00"/>
<polygon points="1025.37, 2368.00  1039.30, 2392.13, 975.21, 2429.13,  961.28, 2405.00" style="fill:#095462;fill-opacity:1.00"/>
<polygon points="3140.19, 2405.00  3126.26, 2429.13, 3062.18, 2392.13,  3076.11, 2368.00" style="fill:#095462;fill-opacity:1.00"/>
<polygon points="3204.28, 2442.00  3190.35, 2466.13, 3126.26, 2429.13,  3140.19, 2405.00" style="fill:#095462;fill-opacity:1.00"/>
<polygon points="833.11, 2479.00  847.04, 2503.13, 782.96, 2540.13,  769.03, 2516.00" style="fill:#095462;fill-opacity:1.00"/>
<polygon points="897.20, 2442.00  911.13, 2466.13, 847.04, 2503.13,  833.11, 2479.00" style="fill:#095462;fill-opacity:1.00"/>
<polygon points="3268.36, 2479.00  3254.43, 2503.13, 3190.35, 2466.13,  3204.28, 2442.00" style="fill:#095462;fill-opacity:1.00"/>
<polygon points="3332.45, 2516.00  3318.52, 2540.13, 3254.43, 2503.13,  3268.36, 2479.00" style="fill:#095462;fill-opacity:1.00"/>
<polygon points="704.94, 2553.00  718.87, 2577.13, 654.79, 2614.13,  640.86, 2590.00" style="fill:#095462;fill-opacity:1.00"/>
<polygon points="769.03, 2516.00  782.96, 2540.13, 718.87, 2577.13,  704.94, 2553.00" style="fill:#095462;fill-opacity:1.00"/>
<polygon points="3396.53, 2553.00  3382.61, 2577.13, 3318.52, 2540.13,  3332.45, 2516.00" style="fill:#095462;fill-opacity:1.00"/>
<polygon points="3460.62, 2590.00  3446.69, 2614.13, 3382.61, 2577.13,  3396.53, 2553.00" style="fill:#095462;fill-opacity:1.00"/>
<polygon points="576.77, 2627.00  590.70, 2651.13, 540.54, 2680.08,  512.68, 2664.00" style="fill:#095462;fill-opacity:1.00"/>
<polygon points="640.86, 2590.00  654.79, 2614.13, 590.70, 2651.13,  576.77, 2627.00" style="fill:#095462;fill-opacity:1.00"/>
<polygon points="3524.71, 2627.00  3510.78, 2651.13, 3446.69, 2614.13,  3460.62, 2590.00" style="fill:#095462;fill-opacity:1.00"/>
<polygon points="3588.79, 2664.00  3574.86, 2688.13, 3510.78, 2651.13,  3524.71, 2627.00" style="fill:#095462;fill-opacity:1.00"/>
<polygon points="512.68, 2664.00  540.54, 2680.08, 540.54, 2738.00,  512.68, 2738.00" style="fill:#095462;fill-opacity:1.00"/>
<polygon points="576.77, 2701.00  562.84, 2725.13, 498.76, 2688.13,  512.68, 2664.00" style="fill:#095462;fill-opacity:1.00"/>
<polygon points="640.86, 2738.00  626.93, 2762.13, 562.84, 2725.13,  576.77, 2701.00" style="fill:#095462;fill-opacity:1.00"/>
<polygon points="3524.71, 2701.00  3538.64, 2725.13, 3474.55, 2762.13,  3460.62, 2738.00" style="fill:#095462;fill-opacity:1.00"/>
<polygon points="3588.79, 2664.00  3602.72, 2688.13, 3538.64, 2725.13,  3524.71, 2701.00" style="fill:#095462;fill-opacity:1.00"/>
<polygon points="3588.79, 2738.00  3560.93, 2738.00, 3560.93, 2680.08,  3588.79, 2664.00" style="fill:#095462;fill-opacity:1.00"/>
<polygon points="512.68, 2738.00  540.54, 2738.00, 540.54, 2812.00,  512.68, 2812.00" style="fill:#095462;fill-opacity:1.00"/>
<polygon points="3588.79, 2812.00  3560.93, 2812.00, 3560.93, 2738.00,  3588.79, 2738.00" style="fill:#095462;fill-opacity:1.00"/>
<polygon points="704.94, 2775.00  691.01, 2799.13, 626.93, 2762.13,  640.86, 2738.00" style="fill:#095462;fill-opacity:1.00"/>
<polygon points="769.03, 2812.00  755.10, 2836.13, 691.01, 2799.13,  704.94, 2775.00" style="fill:#095462;fill-opacity:1.00"/>
<polygon points="3396.53, 2775.00  3410.46, 2799.13, 3346.38, 2836.13,  3332.45, 2812.00" style="fill:#095462;fill-opacity:1.00"/>
<polygon points="3460.62, 2738.00  3474.55, 2762.13, 3410.46, 2799.13,  3396.53, 2775.00" style="fill:#095462;fill-opacity:1.00"/>
<polygon points="512.68, 2812.00  540.54, 2812.00, 540.54, 2886.00,  512.68, 2886.00" style="fill:#095462;fill-opacity:1.00"/>
<polygon points="833.11, 2849.00  819.18, 2873.13, 755.10, 2836.13,  769.03, 2812.00" style="fill:#095462;fill-opacity:1.00"/>
<polygon points="897.20, 2886.00  883.27, 2910.13, 819.18, 2873.13,  833.11, 2849.00" style="fill:#095462;fill-opacity:1.00"/>
<polygon points="3268.36, 2849.00  3282.29, 2873.13, 3218.21, 2910.13,  3204.28, 2886.00" style="fill:#095462;fill-opacity:1.00"/>
<polygon points="3332.45, 2812.00  3346.38, 2836.13, 3282.29, 2873.13,  3268.36, 2849.00" style="fill:#095462;fill-opacity:1.00"/>
<polygon points="3588.79, 2886.00  3560.93, 2886.00, 3560.93, 2812.00,  3588.79, 2812.00" style="fill:#095462;fill-opacity:1.00"/>
<polygon points="512.68, 2886.00  540.54, 2886.00, 540.54, 2960.00,  512.68, 2960.00" style="fill:#095462;fill-opacity:1.00"/>
<polygon points="3588.79, 2960.00  3560.93, 2960.00, 3560.93, 2886.00,  3588.79, 2886.00" style="fill:#095462;fill-opacity:1.00"/>
<polygon points="961.28, 2923.00  947.35, 2947.13, 883.27, 2910.13,  897.20, 2886.00" style="fill:#095462;fill-opacity:1.00"/>
<polygon points="1025.37, 2960.00  1011.44, 2984.13, 947.35, 2947.13,  961.28, 2923.00" style="fill:#095462;fill-opacity:1.00"/>
<polygon points="3140.19, 2923.00  3154.12, 2947.13, 3090.04, 2984.13,  3076.11, 2960.00" style="fill:#095462;fill-opacity:1.00"/>
<polygon points="3204.28, 2886.00  3218.21, 2910.13, 3154.12, 2947.13,  3140.19, 2923.00" style="fill:#095462;fill-opacity:1.00"/>
<polygon points="512.68, 2960.00  540.54, 2960.00, 540.54, 3034.00,  512.68, 3034.00" style="fill:#095462;fill-opacity:1.00"/>
<polygon points="1089.45, 2997.00  1075.53, 3021.13, 1011.44, 2984.13,  1025.37, 2960.00" style="fill:#095462;fill-opacity:1.00"/>
<polygon points="1153.54, 3034.00  1139.61, 3058.13, 1075.53, 3021.13,  1089.45, 2997.00" style="fill:#095462;fill-opacity:1.00"/>
<polygon points="3012.02, 2997.00  3025.95, 3021.13, 2961.86, 3058.13,  2947.94, 3034.00" style="fill:#095462;fill-opacity:1.00"/>
<polygon points="3076.11, 2960.00  3090.04, 2984.13, 3025.95, 3021.13,  3012.02, 2997.00" style="fill:#095462;fill-opacity:1.00"/>
<polygon points="3588.79, 3034.00  3560.93, 3034.00, 3560.93, 2960.00,  3588.79, 2960.00" style="fill:#095462;fill-opacity:1.00"/>
<polygon points="512.68, 3034.00  540.54, 3034.00, 540.54, 3108.00,  512.68, 3108.00" style="fill:#095462;fill-opacity:1.00"/>
<polygon points="3588.79, 3108.00  3560.93, 3108.00, 3560.93, 3034.00,  3588.79, 3034.00" style="fill:#095462;fill-opacity:1.00"/>
<polygon points="1217.63, 3071.00  1203.70, 3095.13, 1139.61, 3058.13,  1153.54, 3034.00" style="fill:#095462;fill-opacity:1.00"/>
<polygon points="1281.71, 3108.00  1267.78, 3132.13, 1203.70, 3095.13,  1217.63, 3071.00" style="fill:#095462;fill-opacity:1.00"/>
<polygon points="2883.85, 3071.00  2897.78, 3095.13, 2833.69, 3132.13,  2819.76, 3108.00" style="fill:#095462;fill-opacity:1.00"/>
<polygon points="2947.94, 3034.00  2961.86, 3058.13, 2897.78, 3095.13,  2883.85, 3071.00" style="fill:#095462;fill-opacity:1.00"/>
<polygon points="512.68, 3108.00  540.54, 3108.00, 540.54, 3182.00,  512.68, 3182.00" style="fill:#095462;fill-opacity:1.00"/>
<polygon points="1345.80, 3145.00  1331.87, 3169.13, 1267.78, 3132.13,  1281.71, 3108.00" style="fill:#095462;fill-opacity:1.00"/>
<polygon points="1409.88, 3182.00  1395.95, 3206.13, 1331.87, 3169.13,  1345.80, 3145.00" style="fill:#095462;fill-opacity:1.00"/>
<polygon points="2755.68, 3145.00  2769.61, 3169.13, 2705.52, 3206.13,  2691.59, 3182.00" style="fill:#095462;fill-opacity:1.00"/>
<polygon points="2819.76, 3108.00  2833.69, 3132.13, 2769.61, 3169.13,  2755.68, 3145.00" style="fill:#095462;fill-opacity:1.00"/>
<polygon points="3588.79, 3182.00  3560.93, 3182.00, 3560.93, 3108.00,  3588.79, 3108.00" style="fill:#095462;fill-opacity:1.00"/>
<polygon points="512.68, 3182.00  540.54, 3182.00, 540.54, 3256.00,  512.68, 3256.00" style="fill:#095462;fill-opacity:1.00"/>
<polygon points="3588.79, 3256.00  3560.93, 3256.00, 3560.93, 3182.00,  3588.79, 3182.00" style="fill:#095462;fill-opacity:1.00"/>
<polygon points="1473.97, 3219.00  1460.04, 3243.13, 1395.95, 3206.13,  1409.88, 3182.00" style="fill:#095462;fill-opacity:1.00"/>
<polygon points="1538.05, 3256.00  1524.12, 3280.13, 1460.04, 3243.13,  1473.97, 3219.00" style="fill:#095462;fill-opacity:1.00"/>
<polygon points="2627.51, 3219.00  2641.44, 3243.13, 2577.35, 3280.13,  2563.42, 3256.00" style="fill:#095462;fill-opacity:1.00"/>
<polygon points="2691.59, 3182.00  2705.52, 3206.13, 2641.44, 3243.13,  2627.51, 3219.00" style="fill:#095462;fill-opacity:1.00"/>
<polygon points="512.68, 3256.00  540.54, 3239.92, 590.70, 3268.87,  576.77, 3293.00" style="fill:#095462;fill-opacity:1.00"/>
<polygon points="576.77, 3293.00  590.70, 3268.87, 654.79, 3305.87,  640.86, 3330.00" style="fill:#095462;fill-opacity:1.00"/>
<polygon points="3460.62, 3330.00  3446.69, 3305.87, 3510.78, 3268.87,  3524.71, 3293.00" style="fill:#095462;fill-opacity:1.00"/>
<polygon points="3524.71, 3293.00  3510.78, 3268.87, 3574.86, 3231.87,  3588.79, 3256.00" style="fill:#095462;fill-opacity:1.00"/>
<polygon points="1602.14, 3293.00  1588.21, 3317.13, 1524.12, 3280.13,  1538.05, 3256.00" style="fill:#095462;fill-opacity:1.00"/>
<polygon points="1666.22, 3330.00  1652.30, 3354.13, 1588.21, 3317.13,  1602.14, 3293.00" style="fill:#095462;fill-opacity:1.00"/>
<polygon points="2499.34, 3293.00  2513.27, 3317.13, 2449.18, 3354.13,  2435.25, 3330.00" style="fill:#095462;fill-opacity:1.00"/>
<polygon points="2563.42, 3256.00  2577.35, 3280.13, 2513.27, 3317.13,  2499.34, 3293.00" style="fill:#095462;fill-opacity:1.00"/>
<polygon points="640.86, 3330.00  654.79, 3305.87, 718.87, 3342.87,  704.94, 3367.00" style="fill:#095462;fill-opacity:1.00"/>
<polygon points="704.94, 3367.00  718.87, 3342.87, 782.96, 3379.87,  769.03, 3404.00" style="fill:#095462;fill-opacity:1.00"/>
<polygon points="3332.45, 3404.00  3318.52, 3379.87, 3382.61, 3342.87,  3396.53, 3367.00" style="fill:#095462;fill-opacity:1.00"/>
<polygon points="3396.53, 3367.00  3382.61, 3342.87, 3446.69, 3305.87,  3460.62, 3330.00" style="fill:#095462;fill-opacity:1.00"/>
<polygon points="1730.31, 3367.00  1716.38, 3391.13, 1652.30, 3354.13,  1666.22, 3330.00" style="fill:#095462;fill-opacity:1.00"/>
<polygon points="1794.40, 3404.00  1780.47, 3428.13, 1716.38, 3391.13,  1730.31, 3367.00" style="fill:#095462;fill-opacity:1.00"/>
<polygon points="2371.17, 3367.00  2385.10, 3391.13, 2321.01, 3428.13,  2307.08, 3404.00" style="fill:#095462;fill-opacity:1.00"/>
<polygon points="2435.25, 3330.00  2449.18, 3354.13, 2385.10, 3391.13,  2371.17, 3367.00" style="fill:#095462;fill-opacity:1.00"/>
<polygon points="769.03, 3404.00  782.96, 3379.87, 847.04, 3416.87,  833.11, 3441.00" style="fill:#095462;fill-opacity:1.00"/>
<polygon points="833.11, 3441.00  847.04, 3416.87, 911.13, 3453.87,  897.20, 3478.00" style="fill:#095462;fill-opacity:1.00"/>
<polygon points="3204.28, 3478.00  3190.35, 3453.87, 3254.43, 3416.87,  3268.36, 3441.00" style="fill:#095462;fill-opacity:1.00"/>
<polygon points="3268.36, 3441.00  3254.43, 3416.87, 3318.52, 3379.87,  3332.45, 3404.00" style="fill:#095462;fill-opacity:1.00"/>
<polygon points="1858.48, 3441.00  1844.55, 3465.13, 1780.47, 3428.13,  1794.40, 3404.00" style="fill:#095462;fill-opacity:1.00"/>
<polygon points="1922.57, 3478.00  1908.64, 3502.13, 1844.55, 3465.13,  1858.48, 3441.00" style="fill:#095462;fill-opacity:1.00"/>
<polygon points="2242.99, 3441.00  2256.92, 3465.13, 2192.84, 3502.13,  2178.91, 3478.00" style="fill:#095462;fill-opacity:1.00"/>
<polygon points="2307.08, 3404.00  2321.01, 3428.13, 2256.92, 3465.13,  2242.99, 3441.00" style="fill:#095462;fill-opacity:1.00"/>
<polygon points="897.20, 3478.00  911.13, 3453.87, 975.21, 3490.87,  961.28, 3515.00" style="fill:#095462;fill-opacity:1.00"/>
<polygon points="961.28, 3515.00  975.21, 3490.87, 1039.30, 3527.87,  1025.37, 3552.00" style="fill:#095462;fill-opacity:1.00"/>
<polygon points="3076.11, 3552.00  3062.18, 3527.87, 3126.26, 3490.87,  3140.19, 3515.00" style="fill:#095462;fill-opacity:1.00"/>
<polygon points="3140.19, 3515.00  3126.26, 3490.87, 3190.35, 3453.87,  3204.28, 3478.00" style="fill:#095462;fill-opacity:1.00"/>
<polygon points="1986.65, 3515.00  1972.72, 3539.13, 1908.64, 3502.13,  1922.57, 3478.00" style="fill:#095462;fill-opacity:1.00"/>
<polygon points="2050.74, 3552.00  2036.81, 3576.13, 1972.72, 3539.13,  1986.65, 3515.00" style="fill:#095462;fill-opacity:1.00"/>
<polygon points="2114.82, 3515.00  2128.75, 3539.13, 2064.67, 3576.13,  2050.74, 3552.00" style="fill:#095462;fill-opacity:1.00"/>
<polygon points="2178.91, 3478.00  2192.84, 3502.13, 2128.75, 3539.13,  2114.82, 3515.00" style="fill:#095462;fill-opacity:1.00"/>
<polygon points="1025.37, 3552.00  1039.30, 3527.87, 1103.38, 3564.87,  1089.45, 3589.00" style="fill:#095462;fill-opacity:1.00"/>
<polygon points="1089.45, 3589.00  1103.38, 3564.87, 1167.47, 3601.87,  1153.54, 3626.00" style="fill:#095462;fill-opacity:1.00"/>
<polygon points="2947.94, 3626.00  2934.01, 3601.87, 2998.09, 3564.87,  3012.02, 3589.00" style="fill:#095462;fill-opacity:1.00"/>
<polygon points="3012.02, 3589.00  2998.09, 3564.87, 3062.18, 3527.87,  3076.11, 3552.00" style="fill:#095462;fill-opacity:1.00"/>
<polygon points="2050.74, 3552.00  2078.60, 3552.00, 2078.60, 3626.00,  2050.74, 3626.00" style="fill:#095462;fill-opacity:1.00"/>
<polygon points="1153.54, 3626.00  1167.47, 3601.87, 1231.56, 3638.87,  1217.63, 3663.00" style="fill:#095462;fill-opacity:1.00"/>
<polygon points="1217.63, 3663.00  1231.55, 3638.87, 1295.64, 3675.87,  1281.71, 3700.00" style="fill:#095462;fill-opacity:1.00"/>
<polygon points="2050.74, 3626.00  2078.60, 3626.00, 2078.60, 3700.00,  2050.74, 3700.00" style="fill:#095462;fill-opacity:1.00"/>
<polygon points="2819.76, 3700.00  2805.84, 3675.87, 2869.92, 3638.87,  2883.85, 3663.00" style="fill:#095462;fill-opacity:1.00"/>
<polygon points="2883.85, 3663.00  2869.92, 3638.87, 2934.01, 3601.87,  2947.94, 3626.00" style="fill:#095462;fill-opacity:1.00"/>
<polygon points="1281.71, 3700.00  1295.64, 3675.87, 1359.73, 3712.87,  1345.80, 3737.00" style="fill:#095462;fill-opacity:1.00"/>
<polygon points="1345.80, 3737.00  1359.73, 3712.87, 1423.81, 3749.87,  1409.88, 3774.00" style="fill:#095462;fill-opacity:1.00"/>
<polygon points="2691.59, 3774.00  2677.66, 3749.87, 2741.75, 3712.87,  2755.68, 3737.00" style="fill:#095462;fill-opacity:1.00"/>
<polygon points="2755.68, 3737.00  2741.75, 3712.87, 2805.84, 3675.87,  2819.76, 3700.00" style="fill:#095462;fill-opacity:1.00"/>
<polygon points="2050.74, 3700.00  2078.60, 3700.00, 2078.60, 3774.00,  2050.74, 3774.00" style="fill:#095462;fill-opacity:1.00"/>
<polygon points="1409.88, 3774.00  1423.81, 3749.87, 1487.90, 3786.87,  1473.97, 3811.00" style="fill:#095462;fill-opacity:1.00"/>
<polygon points="1473.97, 3811.00  1487.90, 3786.87, 1551.98, 3823.87,  1538.05, 3848.00" style="fill:#095462;fill-opacity:1.00"/>
<polygon points="2050.74, 3774.00  2078.60, 3774.00, 2078.60, 3848.00,  2050.74, 3848.00" style="fill:#095462;fill-opacity:1.00"/>
<polygon points="2563.42, 3848.00  2549.49, 3823.87, 2613.58, 3786.87,  2627.51, 3811.00" style="fill:#095462;fill-opacity:1.00"/>
<polygon points="2627.51, 3811.00  2613.58, 3786.87, 2677.66, 3749.87,  2691.59, 3774.00" style="fill:#095462;fill-opacity:1.00"/>
<polygon points="1538.05, 3848.00  1551.98, 3823.87, 1616.07, 3860.87,  1602.14, 3885.00" style="fill:#095462;fill-opacity:1.00"/>
<polygon points="1602.14, 3885.00  1616.07, 3860.87, 1680.15, 3897.87,  1666.22, 3922.00" style="fill:#095462;fill-opacity:1.00"/>
<polygon points="2435.25, 3922.00  2421.32, 3897.87, 2485.41, 3860.87,  2499.34, 3885.00" style="fill:#095462;fill-opacity:1.00"/>
<polygon points="2499.34, 3885.00  2485.41, 3860.87, 2549.49, 3823.87,  2563.42, 3848.00" style="fill:#095462;fill-opacity:1.00"/>
<polygon points="2050.74, 3848.00  2078.60, 3848.00, 2078.60, 3922.00,  2050.74, 3922.00" style="fill:#095462;fill-opacity:1.00"/>
<polygon points="1666.22, 3922.00  1680.15, 3897.87, 1744.24, 3934.87,  1730.31, 3959.00" style="fill:#095462;fill-opacity:1.00"/>
<polygon points="1730.31, 3959.00  1744.24, 3934.87, 1808.33, 3971.87,  1794.40, 3996.00" style="fill:#095462;fill-opacity:1.00"/>
<polygon points="2050.74, 3922.00  2078.60, 3922.00, 2078.60, 3996.00,  2050.74, 3996.00" style="fill:#095462;fill-opacity:1.00"/>
<polygon points="2307.08, 3996.00  2293.15, 3971.87, 2357.24, 3934.87,  2371.17, 3959.00" style="fill:#095462;fill-opacity:1.00"/>
<polygon points="2371.17, 3959.00  2357.24, 3934.87, 2421.32, 3897.87,  2435.25, 3922.00" style="fill:#095462;fill-opacity:1.00"/>
<polygon points="1794.40, 3996.00  1808.32, 3971.87, 1872.41, 4008.87,  1858.48, 4033.00" style="fill:#095462;fill-opacity:1.00"/>
<polygon points="1858.48, 4033.00  1872.41, 4008.87, 1936.50, 4045.87,  1922.57, 4070.00" style="fill:#095462;fill-opacity:1.00"/>
<polygon points="2178.91, 4070.00  2164.98, 4045.87, 2229.07, 4008.87,  2242.99, 4033.00" style="fill:#095462;fill-opacity:1.00"/>
<polygon points="2242.99, 4033.00  2229.07, 4008.87, 2293.15, 3971.87,  2307.08, 3996.00" style="fill:#095462;fill-opacity:1.00"/>
<polygon points="2050.74, 3996.00  2078.60, 3996.00, 2078.60, 4070.00,  2050.74, 4070.00" style="fill:#095462;fill-opacity:1.00"/>
<polygon points="1922.57, 4070.00  1936.50, 4045.87, 2000.58, 4082.87,  1986.65, 4107.00" style="fill:#095462;fill-opacity:1.00"/>
<polygon points="1986.65, 4107.00  2000.58, 4082.87, 2064.67, 4119.87,  2050.74, 4144.00" style="fill:#095462;fill-opacity:1.00"/>
<polygon points="2050.74, 4070.00  2078.60, 4070.00, 2078.60, 4144.00,  2050.74, 4144.00" style="fill:#095462;fill-opacity:1.00"/>
<polygon points="2050.74, 4144.00  2036.81, 4119.87, 2100.89, 4082.87,  2114.82, 4107.00" style="fill:#095462;fill-opacity:1.00"/>
<polygon points="2114.82, 4107.00  2100.89, 4082.87, 2164.98, 4045.87,  2178.91, 4070.00" style="fill:#095462;fill-opacity:1.00"/>
</g>
</g>
</g></svg>
