<svg id="Hexels SVG Export" xmlns="http://www.w3.org/2000/svg" version="1.1" xmlns:xlink="http://www.w3.org/1999/xlink" viewBox="0 -0 4157 4800" xml:space="preserve">
<g id="Root" transform="matrix(1.000, 0.000, 0.000, 1.000, 0.000, 0.000)">
<g id="Layer 1" transform="matrix(1.000, 0.000, 0.000, 1.000, 0.000, 0.000)">
<g id="Hexels">
<path d="M 2078.45,795.00 L 688.48,1597.50 L 688.49,3202.50 L 2078.46,4005.00 L 3468.42,3202.50 L 3468.41,1597.50 L 2078.45,795.00  z
M 1736.37,1802.50 L 2075.95,1604.33 L 2075.00,2003.61 L 3114.22,2603.61 L 3114.21,2996.40 L 2078.44,3595.00 L 1042.68,2996.39 L 1043.01,2603.27 L 1735.82,2203.27 L 1736.37,1802.50  z
" style="fill:#ffffff;fill-opacity:1.00"/>
<path d="M 2080.95,1595.67 L 1727.71,1797.50 L 1729.54,2204.33 L 2082.78,2002.50 L 2080.95,1595.67  z
" style="fill:#8a5d10;fill-opacity:1.00"/>
<path d="M 2078.45,1995.00 L 1727.04,2200.00 L 2078.45,2405.00 L 2429.86,2200.00 L 2078.45,1995.00  z
" style="fill:#784d0c;fill-opacity:1.00"/>
<path d="M 1732.04,2195.00 L 1035.44,2596.74 L 1035.76,3003.60 L 2078.46,3605.00 L 3121.15,3003.59 L 3121.45,2596.73 L 2424.84,2195.00 L 2420.52,2597.52 L 2078.43,2795.00 L 1736.37,2597.50 L 1732.04,2195.00  z
" style="fill:#11a6c1;fill-opacity:1.00"/>
<path d="M 1729.54,2195.67 L 1727.71,2602.50 L 2078.47,2805.00 L 2429.20,2602.48 L 2427.36,2195.67 L 2078.45,2395.00 L 1729.54,2195.67  z
" style="fill:#8a5d10;fill-opacity:1.00"/>
</g>
<g id="Outlines">
<polygon points="1905.25, 1700.00  1914.66, 1716.30, 1750.87, 1810.87,  1732.04, 1800.00" style="fill:#623e0a;fill-opacity:1.00"/>
<polygon points="2078.45, 1600.00  2087.86, 1616.30, 1914.66, 1716.30,  1905.25, 1700.00" style="fill:#623e0a;fill-opacity:1.00"/>
<polygon points="2078.45, 1600.00  2097.27, 1600.00, 2097.27, 1800.00,  2078.45, 1800.00" style="fill:#623e0a;fill-opacity:1.00"/>
<polygon points="2078.45, 1800.00  2097.27, 1800.00, 2097.27, 2010.87,  2078.45, 2000.00" style="fill:#623e0a;fill-opacity:1.00"/>
<polygon points="1732.04, 1800.00  1750.87, 1810.87, 1750.87, 2000.00,  1732.04, 2000.00" style="fill:#623e0a;fill-opacity:1.00"/>
<polygon points="1732.04, 2000.00  1750.87, 2000.00, 1750.87, 2200.00,  1732.04, 2200.00" style="fill:#623e0a;fill-opacity:1.00"/>
<polygon points="1905.25, 2100.00  1914.66, 2116.30, 1750.87, 2210.87,  1732.04, 2200.00" style="fill:#623e0a;fill-opacity:1.00"/>
<polygon points="2078.45, 2000.00  2078.45, 2021.74, 1914.66, 2116.30,  1905.25, 2100.00" style="fill:#623e0a;fill-opacity:1.00"/>
<polygon points="2078.45, 2000.00  2097.27, 1989.13, 2097.27, 2200.00,  2078.45, 2200.00" style="fill:#623e0a;fill-opacity:1.00"/>
<polygon points="2251.65, 2100.00  2242.24, 2116.30, 2078.45, 2021.74,  2078.45, 2000.00" style="fill:#623e0a;fill-opacity:1.00"/>
<polygon points="2424.86, 2200.00  2415.45, 2216.30, 2242.24, 2116.30,  2251.65, 2100.00" style="fill:#623e0a;fill-opacity:1.00"/>
<polygon points="2078.45, 2200.00  2097.27, 2200.00, 2097.27, 2389.13,  2078.45, 2400.00" style="fill:#623e0a;fill-opacity:1.00"/>
<polygon points="1558.84, 2300.00  1568.25, 2316.30, 1395.05, 2416.30,  1385.63, 2400.00" style="fill:#095462;fill-opacity:1.00"/>
<polygon points="1732.04, 2200.00  1741.45, 2216.30, 1568.25, 2316.30,  1558.84, 2300.00" style="fill:#095462;fill-opacity:1.00"/>
<polygon points="1732.04, 2200.00  1750.87, 2200.00, 1750.87, 2400.00,  1732.04, 2400.00" style="fill:#623e0a;fill-opacity:1.00"/>
<polygon points="1905.25, 2300.00  1895.83, 2316.30, 1713.22, 2210.87,  1732.04, 2200.00" style="fill:#623e0a;fill-opacity:1.00"/>
<polygon points="2078.45, 2400.00  2069.04, 2416.30, 1895.83, 2316.30,  1905.25, 2300.00" style="fill:#623e0a;fill-opacity:1.00"/>
<polygon points="2251.65, 2300.00  2261.07, 2316.30, 2078.45, 2421.74,  2078.45, 2400.00" style="fill:#623e0a;fill-opacity:1.00"/>
<polygon points="2424.86, 2200.00  2434.27, 2216.30, 2261.07, 2316.30,  2251.66, 2300.00" style="fill:#623e0a;fill-opacity:1.00"/>
<polygon points="2424.86, 2400.00  2406.04, 2400.00, 2406.04, 2200.00,  2424.86, 2200.00" style="fill:#623e0a;fill-opacity:1.00"/>
<polygon points="2598.06, 2300.00  2588.65, 2316.30, 2415.45, 2216.30,  2424.86, 2200.00" style="fill:#095462;fill-opacity:1.00"/>
<polygon points="2771.27, 2400.00  2761.86, 2416.30, 2588.65, 2316.30,  2598.06, 2300.00" style="fill:#095462;fill-opacity:1.00"/>
<polygon points="1732.04, 2400.00  1750.87, 2400.00, 1750.87, 2589.13,  1732.04, 2600.00" style="fill:#623e0a;fill-opacity:1.00"/>
<polygon points="2424.86, 2600.00  2406.04, 2589.13, 2406.04, 2400.00,  2424.86, 2400.00" style="fill:#623e0a;fill-opacity:1.00"/>
<polygon points="1212.43, 2500.00  1221.84, 2516.30, 1048.64, 2616.30,  1039.23, 2600.00" style="fill:#095462;fill-opacity:1.00"/>
<polygon points="1385.63, 2400.00  1395.05, 2416.30, 1221.84, 2516.30,  1212.43, 2500.00" style="fill:#095462;fill-opacity:1.00"/>
<polygon points="2078.45, 2600.00  2059.63, 2600.00, 2059.63, 2400.00,  2078.45, 2400.00" style="fill:#623e0a;fill-opacity:1.00"/>
<polygon points="2944.47, 2500.00  2935.06, 2516.30, 2761.86, 2416.30,  2771.27, 2400.00" style="fill:#095462;fill-opacity:1.00"/>
<polygon points="3117.68, 2600.00  3098.85, 2610.87, 2935.06, 2516.30,  2944.47, 2500.00" style="fill:#095462;fill-opacity:1.00"/>
<polygon points="1732.04, 2600.00  1750.87, 2589.13, 1914.66, 2683.70,  1905.25, 2700.00" style="fill:#623e0a;fill-opacity:1.00"/>
<polygon points="1905.25, 2700.00  1914.66, 2683.70, 2087.86, 2783.70,  2078.45, 2800.00" style="fill:#623e0a;fill-opacity:1.00"/>
<polygon points="2078.45, 2800.00  2059.63, 2800.00, 2059.63, 2600.00,  2078.45, 2600.00" style="fill:#623e0a;fill-opacity:1.00"/>
<polygon points="2078.45, 2800.00  2069.04, 2783.70, 2242.24, 2683.70,  2251.65, 2700.00" style="fill:#623e0a;fill-opacity:1.00"/>
<polygon points="2251.65, 2700.00  2242.24, 2683.70, 2406.04, 2589.13,  2424.86, 2600.00" style="fill:#623e0a;fill-opacity:1.00"/>
<polygon points="1039.23, 2600.00  1058.05, 2600.00, 1058.05, 2800.00,  1039.23, 2800.00" style="fill:#095462;fill-opacity:1.00"/>
<polygon points="1212.43, 2700.00  1203.02, 2716.30, 1029.81, 2616.30,  1039.23, 2600.00" style="fill:#095462;fill-opacity:1.00"/>
<polygon points="1385.63, 2800.00  1376.22, 2816.30, 1203.02, 2716.30,  1212.43, 2700.00" style="fill:#095462;fill-opacity:1.00"/>
<polygon points="2944.47, 2700.00  2953.88, 2716.30, 2780.68, 2816.30,  2771.27, 2800.00" style="fill:#095462;fill-opacity:1.00"/>
<polygon points="3117.68, 2600.00  3127.09, 2616.30, 2953.88, 2716.30,  2944.47, 2700.00" style="fill:#095462;fill-opacity:1.00"/>
<polygon points="3117.68, 2800.00  3098.85, 2800.00, 3098.85, 2610.87,  3117.68, 2600.00" style="fill:#095462;fill-opacity:1.00"/>
<polygon points="1039.23, 2800.00  1058.05, 2800.00, 1058.05, 2989.13,  1039.23, 3000.00" style="fill:#095462;fill-opacity:1.00"/>
<polygon points="3117.68, 3000.00  3098.85, 3000.00, 3098.85, 2800.00,  3117.68, 2800.00" style="fill:#095462;fill-opacity:1.00"/>
<polygon points="1558.84, 2900.00  1549.43, 2916.30, 1376.22, 2816.30,  1385.63, 2800.00" style="fill:#095462;fill-opacity:1.00"/>
<polygon points="1732.04, 3000.00  1722.63, 3016.30, 1549.43, 2916.30,  1558.84, 2900.00" style="fill:#095462;fill-opacity:1.00"/>
<polygon points="2598.06, 2900.00  2607.48, 2916.30, 2434.27, 3016.30,  2424.86, 3000.00" style="fill:#095462;fill-opacity:1.00"/>
<polygon points="2771.27, 2800.00  2780.68, 2816.30, 2607.48, 2916.30,  2598.06, 2900.00" style="fill:#095462;fill-opacity:1.00"/>
<polygon points="1039.23, 3000.00  1058.05, 2989.13, 1221.84, 3083.70,  1212.43, 3100.00" style="fill:#095462;fill-opacity:1.00"/>
<polygon points="1212.43, 3100.00  1221.84, 3083.70, 1395.05, 3183.70,  1385.63, 3200.00" style="fill:#095462;fill-opacity:1.00"/>
<polygon points="2771.27, 3200.00  2761.86, 3183.70, 2935.06, 3083.70,  2944.47, 3100.00" style="fill:#095462;fill-opacity:1.00"/>
<polygon points="2944.47, 3100.00  2935.06, 3083.70, 3108.26, 2983.70,  3117.68, 3000.00" style="fill:#095462;fill-opacity:1.00"/>
<polygon points="1905.25, 3100.00  1895.83, 3116.30, 1722.63, 3016.30,  1732.04, 3000.00" style="fill:#095462;fill-opacity:1.00"/>
<polygon points="2078.45, 3200.00  2069.04, 3216.30, 1895.83, 3116.30,  1905.25, 3100.00" style="fill:#095462;fill-opacity:1.00"/>
<polygon points="2251.65, 3100.00  2261.07, 3116.30, 2087.86, 3216.30,  2078.45, 3200.00" style="fill:#095462;fill-opacity:1.00"/>
<polygon points="2424.86, 3000.00  2434.27, 3016.30, 2261.07, 3116.30,  2251.66, 3100.00" style="fill:#095462;fill-opacity:1.00"/>
<polygon points="1385.63, 3200.00  1395.05, 3183.70, 1568.25, 3283.70,  1558.84, 3300.00" style="fill:#095462;fill-opacity:1.00"/>
<polygon points="1558.84, 3300.00  1568.25, 3283.70, 1741.45, 3383.70,  1732.04, 3400.00" style="fill:#095462;fill-opacity:1.00"/>
<polygon points="2424.86, 3400.00  2415.45, 3383.70, 2588.65, 3283.70,  2598.06, 3300.00" style="fill:#095462;fill-opacity:1.00"/>
<polygon points="2598.06, 3300.00  2588.65, 3283.70, 2761.86, 3183.70,  2771.27, 3200.00" style="fill:#095462;fill-opacity:1.00"/>
<polygon points="2078.45, 3200.00  2097.27, 3200.00, 2097.27, 3400.00,  2078.45, 3400.00" style="fill:#095462;fill-opacity:1.00"/>
<polygon points="1732.04, 3400.00  1741.45, 3383.70, 1914.66, 3483.70,  1905.25, 3500.00" style="fill:#095462;fill-opacity:1.00"/>
<polygon points="1905.25, 3500.00  1914.66, 3483.70, 2087.86, 3583.70,  2078.45, 3600.00" style="fill:#095462;fill-opacity:1.00"/>
<polygon points="2078.45, 3400.00  2097.27, 3400.00, 2097.27, 3600.00,  2078.45, 3600.00" style="fill:#095462;fill-opacity:1.00"/>
<polygon points="2078.45, 3600.00  2069.04, 3583.70, 2242.24, 3483.70,  2251.65, 3500.00" style="fill:#095462;fill-opacity:1.00"/>
<polygon points="2251.65, 3500.00  2242.24, 3483.70, 2415.45, 3383.70,  2424.86, 3400.00" style="fill:#095462;fill-opacity:1.00"/>
</g>
</g>
</g></svg>
